<?xml version="1.0" encoding="utf-8" standalone="no"?>
<!DOCTYPE svg PUBLIC "-//W3C//DTD SVG 1.1//EN"
  "http://www.w3.org/Graphics/SVG/1.1/DTD/svg11.dtd">
<svg height="345.6pt" version="1.1" viewBox="0 0 460.8 345.6" width="460.8pt" xmlns="http://www.w3.org/2000/svg" xmlns:xlink="http://www.w3.org/1999/xlink">
 <metadata>
  <rdf:RDF xmlns:cc="http://creativecommons.org/ns#" xmlns:dc="http://purl.org/dc/elements/1.1/" xmlns:rdf="http://www.w3.org/1999/02/22-rdf-syntax-ns#">
   <cc:Work>
    <dc:type rdf:resource="http://purl.org/dc/dcmitype/StillImage"/>
    <dc:date>2023-01-27T17:26:36.368750</dc:date>
    <dc:format>image/svg+xml</dc:format>
    <dc:creator>
     <cc:Agent>
      <dc:title>Matplotlib v3.4.3, https://matplotlib.org/</dc:title>
     </cc:Agent>
    </dc:creator>
   </cc:Work>
  </rdf:RDF>
 </metadata>
 <defs>
  <style type="text/css">*{stroke-linecap:butt;stroke-linejoin:round;}</style>
 </defs>
 <g id="figure_1">
  <g id="patch_1">
   <path d="M 0 345.6 
L 460.8 345.6 
L 460.8 0 
L 0 0 
z
" style="fill:#ffffff;"/>
  </g>
  <g id="axes_1">
   <g id="patch_2">
    <path d="M 57.6 307.584 
L 414.72 307.584 
L 414.72 41.472 
L 57.6 41.472 
z
" style="fill:#ffffff;"/>
   </g>
   <g id="matplotlib.axis_1">
    <g id="xtick_1">
     <g id="line2d_1">
      <defs>
       <path d="M 0 0 
L 0 3.5 
" id="me2853ae876" style="stroke:#000000;stroke-width:0.8;"/>
      </defs>
      <g>
       <use style="stroke:#000000;stroke-width:0.8;" x="57.6" xlink:href="#me2853ae876" y="307.584"/>
      </g>
     </g>
     <g id="text_1">
      <!-- 18.85 -->
      <g transform="translate(45.040625 322.084)scale(0.1 -0.1)">
       <defs>
        <path d="M 2278 4575 
L 2278 0 
L 1700 0 
L 1700 3853 
L 534 3428 
L 534 3950 
L 2188 4575 
L 2278 4575 
z
" id="Roboto-Regular-31" transform="scale(0.015625)"/>
        <path d="M 3244 1231 
Q 3244 606 2826 271 
Q 2409 -63 1796 -63 
Q 1184 -63 767 271 
Q 350 606 350 1231 
Q 350 1613 554 1905 
Q 759 2197 1109 2347 
Q 806 2494 629 2762 
Q 453 3031 453 3366 
Q 453 3963 833 4288 
Q 1213 4613 1794 4613 
Q 2378 4613 2758 4288 
Q 3138 3963 3138 3366 
Q 3138 3028 2956 2761 
Q 2775 2494 2472 2347 
Q 2825 2197 3034 1903 
Q 3244 1609 3244 1231 
z
M 2559 3356 
Q 2559 3697 2346 3917 
Q 2134 4138 1793 4138 
Q 1453 4138 1243 3927 
Q 1034 3716 1034 3356 
Q 1034 3003 1243 2790 
Q 1453 2578 1797 2578 
Q 2138 2578 2348 2790 
Q 2559 3003 2559 3356 
z
M 2663 1244 
Q 2663 1625 2420 1865 
Q 2178 2106 1791 2106 
Q 1394 2106 1161 1865 
Q 928 1625 928 1244 
Q 928 850 1161 631 
Q 1394 413 1797 413 
Q 2200 413 2431 631 
Q 2663 850 2663 1244 
z
" id="Roboto-Regular-38" transform="scale(0.015625)"/>
        <path d="M 450 306 
Q 450 453 542 554 
Q 634 656 809 656 
Q 984 656 1076 554 
Q 1169 453 1169 306 
Q 1169 163 1076 62 
Q 984 -38 809 -38 
Q 634 -38 542 62 
Q 450 163 450 306 
z
" id="Roboto-Regular-2e" transform="scale(0.015625)"/>
        <path d="M 1109 2166 
L 647 2284 
L 875 4550 
L 3209 4550 
L 3209 4016 
L 1366 4016 
L 1228 2778 
Q 1572 2975 1988 2975 
Q 2616 2975 2980 2561 
Q 3344 2147 3344 1450 
Q 3344 797 2987 367 
Q 2631 -63 1903 -63 
Q 1350 -63 947 248 
Q 544 559 481 1197 
L 1031 1197 
Q 1141 413 1903 413 
Q 2313 413 2538 691 
Q 2763 969 2763 1444 
Q 2763 1872 2527 2164 
Q 2291 2456 1853 2456 
Q 1563 2456 1413 2378 
Q 1263 2300 1109 2166 
z
" id="Roboto-Regular-35" transform="scale(0.015625)"/>
       </defs>
       <use xlink:href="#Roboto-Regular-31"/>
       <use x="56.201172" xlink:href="#Roboto-Regular-38"/>
       <use x="112.402344" xlink:href="#Roboto-Regular-2e"/>
       <use x="138.769531" xlink:href="#Roboto-Regular-38"/>
       <use x="194.970703" xlink:href="#Roboto-Regular-35"/>
      </g>
     </g>
    </g>
    <g id="xtick_2">
     <g id="line2d_2">
      <g>
       <use style="stroke:#000000;stroke-width:0.8;" x="129.024" xlink:href="#me2853ae876" y="307.584"/>
      </g>
     </g>
     <g id="text_2">
      <!-- 18.90 -->
      <g transform="translate(116.464625 322.084)scale(0.1 -0.1)">
       <defs>
        <path d="M 3175 2563 
Q 3175 2119 3098 1667 
Q 3022 1216 2801 836 
Q 2581 456 2151 225 
Q 1722 -6 953 -6 
L 953 484 
Q 1644 484 1980 700 
Q 2316 916 2448 1264 
Q 2581 1613 2597 2006 
Q 2416 1791 2162 1656 
Q 1909 1522 1613 1522 
Q 1163 1522 875 1747 
Q 588 1972 450 2320 
Q 313 2669 313 3041 
Q 313 3691 670 4152 
Q 1028 4613 1725 4613 
Q 2244 4613 2564 4344 
Q 2884 4075 3029 3653 
Q 3175 3231 3175 2772 
L 3175 2563 
z
M 881 3072 
Q 881 2666 1086 2334 
Q 1291 2003 1706 2003 
Q 2003 2003 2245 2181 
Q 2488 2359 2600 2622 
L 2600 2850 
Q 2600 3472 2336 3803 
Q 2072 4134 1725 4134 
Q 1322 4134 1101 3829 
Q 881 3525 881 3072 
z
" id="Roboto-Regular-39" transform="scale(0.015625)"/>
        <path d="M 3234 1944 
Q 3234 825 2848 381 
Q 2463 -63 1800 -63 
Q 1156 -63 764 368 
Q 372 800 359 1872 
L 359 2638 
Q 359 3753 750 4183 
Q 1141 4613 1794 4613 
Q 2447 4613 2834 4195 
Q 3222 3778 3234 2709 
L 3234 1944 
z
M 2653 2734 
Q 2653 3503 2434 3822 
Q 2216 4141 1794 4141 
Q 1388 4141 1167 3831 
Q 947 3522 941 2778 
L 941 1850 
Q 941 1088 1164 750 
Q 1388 413 1800 413 
Q 2222 413 2436 745 
Q 2650 1078 2653 1825 
L 2653 2734 
z
" id="Roboto-Regular-30" transform="scale(0.015625)"/>
       </defs>
       <use xlink:href="#Roboto-Regular-31"/>
       <use x="56.201172" xlink:href="#Roboto-Regular-38"/>
       <use x="112.402344" xlink:href="#Roboto-Regular-2e"/>
       <use x="138.769531" xlink:href="#Roboto-Regular-39"/>
       <use x="194.970703" xlink:href="#Roboto-Regular-30"/>
      </g>
     </g>
    </g>
    <g id="xtick_3">
     <g id="line2d_3">
      <g>
       <use style="stroke:#000000;stroke-width:0.8;" x="200.448" xlink:href="#me2853ae876" y="307.584"/>
      </g>
     </g>
     <g id="text_3">
      <!-- 18.95 -->
      <g transform="translate(187.888625 322.084)scale(0.1 -0.1)">
       <use xlink:href="#Roboto-Regular-31"/>
       <use x="56.201172" xlink:href="#Roboto-Regular-38"/>
       <use x="112.402344" xlink:href="#Roboto-Regular-2e"/>
       <use x="138.769531" xlink:href="#Roboto-Regular-39"/>
       <use x="194.970703" xlink:href="#Roboto-Regular-35"/>
      </g>
     </g>
    </g>
    <g id="xtick_4">
     <g id="line2d_4">
      <g>
       <use style="stroke:#000000;stroke-width:0.8;" x="271.872" xlink:href="#me2853ae876" y="307.584"/>
      </g>
     </g>
     <g id="text_4">
      <!-- 19.00 -->
      <g transform="translate(259.312625 322.084)scale(0.1 -0.1)">
       <use xlink:href="#Roboto-Regular-31"/>
       <use x="56.201172" xlink:href="#Roboto-Regular-39"/>
       <use x="112.402344" xlink:href="#Roboto-Regular-2e"/>
       <use x="138.769531" xlink:href="#Roboto-Regular-30"/>
       <use x="194.970703" xlink:href="#Roboto-Regular-30"/>
      </g>
     </g>
    </g>
    <g id="xtick_5">
     <g id="line2d_5">
      <g>
       <use style="stroke:#000000;stroke-width:0.8;" x="343.296" xlink:href="#me2853ae876" y="307.584"/>
      </g>
     </g>
     <g id="text_5">
      <!-- 19.05 -->
      <g transform="translate(330.736625 322.084)scale(0.1 -0.1)">
       <use xlink:href="#Roboto-Regular-31"/>
       <use x="56.201172" xlink:href="#Roboto-Regular-39"/>
       <use x="112.402344" xlink:href="#Roboto-Regular-2e"/>
       <use x="138.769531" xlink:href="#Roboto-Regular-30"/>
       <use x="194.970703" xlink:href="#Roboto-Regular-35"/>
      </g>
     </g>
    </g>
    <g id="xtick_6">
     <g id="line2d_6">
      <g>
       <use style="stroke:#000000;stroke-width:0.8;" x="414.72" xlink:href="#me2853ae876" y="307.584"/>
      </g>
     </g>
     <g id="text_6">
      <!-- 19.10 -->
      <g transform="translate(402.160625 322.084)scale(0.1 -0.1)">
       <use xlink:href="#Roboto-Regular-31"/>
       <use x="56.201172" xlink:href="#Roboto-Regular-39"/>
       <use x="112.402344" xlink:href="#Roboto-Regular-2e"/>
       <use x="138.769531" xlink:href="#Roboto-Regular-31"/>
       <use x="194.970703" xlink:href="#Roboto-Regular-30"/>
      </g>
     </g>
    </g>
    <g id="text_7">
     <!-- Wavelength (A) -->
     <g transform="translate(202.150625 336.137125)scale(0.1 -0.1)">
      <defs>
       <path d="M 5541 4550 
L 4441 0 
L 3894 0 
L 2956 3316 
L 2884 3663 
L 2813 3316 
L 1841 0 
L 1294 0 
L 191 4550 
L 791 4550 
L 1509 1438 
L 1600 834 
L 1725 1375 
L 2628 4550 
L 3131 4550 
L 4009 1375 
L 4138 822 
L 4234 1441 
L 4938 4550 
L 5541 4550 
z
" id="Roboto-Regular-57" transform="scale(0.015625)"/>
       <path d="M 2528 0 
Q 2472 122 2447 356 
Q 2284 184 2040 60 
Q 1797 -63 1484 -63 
Q 966 -63 653 228 
Q 341 519 341 941 
Q 341 1484 753 1767 
Q 1166 2050 1863 2050 
L 2434 2050 
L 2434 2319 
Q 2434 2619 2254 2798 
Q 2075 2978 1722 2978 
Q 1394 2978 1192 2817 
Q 991 2656 991 2444 
L 413 2444 
Q 413 2806 778 3125 
Q 1144 3444 1756 3444 
Q 2306 3444 2659 3162 
Q 3013 2881 3013 2313 
L 3013 794 
Q 3013 325 3131 50 
L 3131 0 
L 2528 0 
z
M 1569 444 
Q 1881 444 2111 600 
Q 2341 756 2434 947 
L 2434 1644 
L 1897 1644 
Q 922 1625 922 1019 
Q 922 778 1084 611 
Q 1247 444 1569 444 
z
" id="Roboto-Regular-61" transform="scale(0.015625)"/>
       <path d="M 2984 3381 
L 1769 0 
L 1328 0 
L 103 3381 
L 697 3381 
L 1556 791 
L 2394 3381 
L 2984 3381 
z
" id="Roboto-Regular-76" transform="scale(0.015625)"/>
       <path d="M 3116 591 
Q 2950 341 2647 139 
Q 2344 -63 1844 -63 
Q 1138 -63 714 396 
Q 291 856 291 1572 
L 291 1703 
Q 291 2256 502 2645 
Q 713 3034 1050 3239 
Q 1388 3444 1769 3444 
Q 2494 3444 2826 2970 
Q 3159 2497 3159 1788 
L 3159 1528 
L 872 1528 
Q 884 1063 1148 736 
Q 1413 409 1875 409 
Q 2181 409 2393 534 
Q 2606 659 2766 869 
L 3116 591 
z
M 1769 2969 
Q 1425 2969 1187 2719 
Q 950 2469 891 2000 
L 2581 2000 
L 2581 2044 
Q 2559 2381 2386 2675 
Q 2213 2969 1769 2969 
z
" id="Roboto-Regular-65" transform="scale(0.015625)"/>
       <path d="M 1069 4800 
L 1069 0 
L 488 0 
L 488 4800 
L 1069 4800 
z
" id="Roboto-Regular-6c" transform="scale(0.015625)"/>
       <path d="M 1844 2956 
Q 1566 2956 1353 2806 
Q 1141 2656 1019 2416 
L 1019 0 
L 441 0 
L 441 3381 
L 988 3381 
L 1006 2959 
Q 1391 3444 2016 3444 
Q 2513 3444 2805 3166 
Q 3097 2888 3100 2231 
L 3100 0 
L 2519 0 
L 2519 2222 
Q 2519 2619 2345 2787 
Q 2172 2956 1844 2956 
z
" id="Roboto-Regular-6e" transform="scale(0.015625)"/>
       <path d="M 1725 -1334 
Q 1463 -1334 1081 -1206 
Q 700 -1078 472 -747 
L 775 -403 
Q 1150 -859 1681 -859 
Q 2091 -859 2334 -629 
Q 2578 -400 2578 44 
L 2578 341 
Q 2234 -63 1631 -63 
Q 1022 -63 662 425 
Q 303 913 303 1653 
L 303 1719 
Q 303 2494 661 2969 
Q 1019 3444 1638 3444 
Q 2259 3444 2603 3006 
L 2631 3381 
L 3156 3381 
L 3156 72 
Q 3156 -600 2756 -967 
Q 2356 -1334 1725 -1334 
z
M 881 1653 
Q 881 1150 1092 789 
Q 1303 428 1772 428 
Q 2322 428 2578 928 
L 2578 2469 
Q 2469 2678 2275 2817 
Q 2081 2956 1778 2956 
Q 1306 2956 1093 2589 
Q 881 2222 881 1719 
L 881 1653 
z
" id="Roboto-Regular-67" transform="scale(0.015625)"/>
       <path d="M 1872 0 
Q 1675 -63 1425 -63 
Q 1103 -63 875 134 
Q 647 331 647 841 
L 647 2938 
L 28 2938 
L 28 3381 
L 647 3381 
L 647 4203 
L 1225 4203 
L 1225 3381 
L 1856 3381 
L 1856 2938 
L 1225 2938 
L 1225 838 
Q 1225 578 1337 506 
Q 1450 434 1597 434 
Q 1706 434 1869 472 
L 1872 0 
z
" id="Roboto-Regular-74" transform="scale(0.015625)"/>
       <path d="M 1844 2956 
Q 1566 2956 1353 2806 
Q 1141 2656 1019 2416 
L 1019 0 
L 441 0 
L 441 4800 
L 1019 4800 
L 1019 2978 
Q 1403 3444 2016 3444 
Q 2513 3444 2805 3166 
Q 3097 2888 3100 2231 
L 3100 0 
L 2519 0 
L 2519 2222 
Q 2519 2619 2345 2787 
Q 2172 2956 1844 2956 
z
" id="Roboto-Regular-68" transform="scale(0.015625)"/>
       <path id="Roboto-Regular-20" transform="scale(0.015625)"/>
       <path d="M 419 1850 
Q 419 2756 678 3434 
Q 938 4113 1294 4541 
Q 1650 4969 1947 5134 
L 2069 4753 
Q 1700 4475 1348 3761 
Q 997 3047 997 1813 
Q 997 625 1348 -97 
Q 1700 -819 2069 -1119 
L 1947 -1469 
Q 1650 -1306 1294 -878 
Q 938 -450 678 226 
Q 419 903 419 1850 
z
" id="Roboto-Regular-28" transform="scale(0.015625)"/>
       <path d="M 91 0 
L 1825 4550 
L 2353 4550 
L 4094 0 
L 3475 0 
L 3041 1191 
L 1138 1191 
L 706 0 
L 91 0 
z
M 1319 1684 
L 2863 1684 
L 2091 3806 
L 1319 1684 
z
" id="Roboto-Regular-41" transform="scale(0.015625)"/>
       <path d="M 1772 1819 
Q 1772 906 1512 228 
Q 1253 -450 895 -878 
Q 538 -1306 244 -1469 
L 122 -1119 
Q 488 -841 841 -109 
Q 1194 622 1194 1856 
Q 1194 2647 1019 3236 
Q 844 3825 594 4212 
Q 344 4600 122 4781 
L 244 5134 
Q 538 4969 895 4541 
Q 1253 4113 1512 3436 
Q 1772 2759 1772 1819 
z
" id="Roboto-Regular-29" transform="scale(0.015625)"/>
      </defs>
      <use xlink:href="#Roboto-Regular-57"/>
      <use x="88.720703" xlink:href="#Roboto-Regular-61"/>
      <use x="143.115234" xlink:href="#Roboto-Regular-76"/>
      <use x="191.552734" xlink:href="#Roboto-Regular-65"/>
      <use x="244.580078" xlink:href="#Roboto-Regular-6c"/>
      <use x="268.896484" xlink:href="#Roboto-Regular-65"/>
      <use x="321.923828" xlink:href="#Roboto-Regular-6e"/>
      <use x="377.148438" xlink:href="#Roboto-Regular-67"/>
      <use x="433.300781" xlink:href="#Roboto-Regular-74"/>
      <use x="466.015625" xlink:href="#Roboto-Regular-68"/>
      <use x="521.09375" xlink:href="#Roboto-Regular-20"/>
      <use x="545.898438" xlink:href="#Roboto-Regular-28"/>
      <use x="580.126953" xlink:href="#Roboto-Regular-41"/>
      <use x="645.361328" xlink:href="#Roboto-Regular-29"/>
     </g>
    </g>
   </g>
   <g id="matplotlib.axis_2">
    <g id="ytick_1">
     <g id="line2d_7">
      <defs>
       <path d="M 0 0 
L -3.5 0 
" id="mc6d82a8511" style="stroke:#000000;stroke-width:0.8;"/>
      </defs>
      <g>
       <use style="stroke:#000000;stroke-width:0.8;" x="57.6" xlink:href="#mc6d82a8511" y="295.489579"/>
      </g>
     </g>
     <g id="text_8">
      <!-- 0.00 -->
      <g transform="translate(31.101562 299.239579)scale(0.1 -0.1)">
       <use xlink:href="#Roboto-Regular-30"/>
       <use x="56.201172" xlink:href="#Roboto-Regular-2e"/>
       <use x="82.568359" xlink:href="#Roboto-Regular-30"/>
       <use x="138.769531" xlink:href="#Roboto-Regular-30"/>
      </g>
     </g>
    </g>
    <g id="ytick_2">
     <g id="line2d_8">
      <g>
       <use style="stroke:#000000;stroke-width:0.8;" x="57.6" xlink:href="#mc6d82a8511" y="265.455911"/>
      </g>
     </g>
     <g id="text_9">
      <!-- 0.25 -->
      <g transform="translate(31.101562 269.205911)scale(0.1 -0.1)">
       <defs>
        <path d="M 3359 475 
L 3359 0 
L 381 0 
L 381 416 
L 1925 2134 
Q 2306 2566 2439 2819 
Q 2572 3072 2572 3328 
Q 2572 3663 2364 3900 
Q 2156 4138 1778 4138 
Q 1322 4138 1097 3878 
Q 872 3619 872 3213 
L 294 3213 
Q 294 3788 672 4200 
Q 1050 4613 1778 4613 
Q 2422 4613 2786 4278 
Q 3150 3944 3150 3397 
Q 3150 2997 2903 2592 
Q 2656 2188 2297 1797 
L 1078 475 
L 3359 475 
z
" id="Roboto-Regular-32" transform="scale(0.015625)"/>
       </defs>
       <use xlink:href="#Roboto-Regular-30"/>
       <use x="56.201172" xlink:href="#Roboto-Regular-2e"/>
       <use x="82.568359" xlink:href="#Roboto-Regular-32"/>
       <use x="138.769531" xlink:href="#Roboto-Regular-35"/>
      </g>
     </g>
    </g>
    <g id="ytick_3">
     <g id="line2d_9">
      <g>
       <use style="stroke:#000000;stroke-width:0.8;" x="57.6" xlink:href="#mc6d82a8511" y="235.422243"/>
      </g>
     </g>
     <g id="text_10">
      <!-- 0.50 -->
      <g transform="translate(31.101562 239.172243)scale(0.1 -0.1)">
       <use xlink:href="#Roboto-Regular-30"/>
       <use x="56.201172" xlink:href="#Roboto-Regular-2e"/>
       <use x="82.568359" xlink:href="#Roboto-Regular-35"/>
       <use x="138.769531" xlink:href="#Roboto-Regular-30"/>
      </g>
     </g>
    </g>
    <g id="ytick_4">
     <g id="line2d_10">
      <g>
       <use style="stroke:#000000;stroke-width:0.8;" x="57.6" xlink:href="#mc6d82a8511" y="205.388575"/>
      </g>
     </g>
     <g id="text_11">
      <!-- 0.75 -->
      <g transform="translate(31.101562 209.138575)scale(0.1 -0.1)">
       <defs>
        <path d="M 3319 4550 
L 3319 4225 
L 1434 0 
L 825 0 
L 2706 4075 
L 244 4075 
L 244 4550 
L 3319 4550 
z
" id="Roboto-Regular-37" transform="scale(0.015625)"/>
       </defs>
       <use xlink:href="#Roboto-Regular-30"/>
       <use x="56.201172" xlink:href="#Roboto-Regular-2e"/>
       <use x="82.568359" xlink:href="#Roboto-Regular-37"/>
       <use x="138.769531" xlink:href="#Roboto-Regular-35"/>
      </g>
     </g>
    </g>
    <g id="ytick_5">
     <g id="line2d_11">
      <g>
       <use style="stroke:#000000;stroke-width:0.8;" x="57.6" xlink:href="#mc6d82a8511" y="175.354907"/>
      </g>
     </g>
     <g id="text_12">
      <!-- 1.00 -->
      <g transform="translate(31.101562 179.104907)scale(0.1 -0.1)">
       <use xlink:href="#Roboto-Regular-31"/>
       <use x="56.201172" xlink:href="#Roboto-Regular-2e"/>
       <use x="82.568359" xlink:href="#Roboto-Regular-30"/>
       <use x="138.769531" xlink:href="#Roboto-Regular-30"/>
      </g>
     </g>
    </g>
    <g id="ytick_6">
     <g id="line2d_12">
      <g>
       <use style="stroke:#000000;stroke-width:0.8;" x="57.6" xlink:href="#mc6d82a8511" y="145.321239"/>
      </g>
     </g>
     <g id="text_13">
      <!-- 1.25 -->
      <g transform="translate(31.101562 149.071239)scale(0.1 -0.1)">
       <use xlink:href="#Roboto-Regular-31"/>
       <use x="56.201172" xlink:href="#Roboto-Regular-2e"/>
       <use x="82.568359" xlink:href="#Roboto-Regular-32"/>
       <use x="138.769531" xlink:href="#Roboto-Regular-35"/>
      </g>
     </g>
    </g>
    <g id="ytick_7">
     <g id="line2d_13">
      <g>
       <use style="stroke:#000000;stroke-width:0.8;" x="57.6" xlink:href="#mc6d82a8511" y="115.287571"/>
      </g>
     </g>
     <g id="text_14">
      <!-- 1.50 -->
      <g transform="translate(31.101562 119.037571)scale(0.1 -0.1)">
       <use xlink:href="#Roboto-Regular-31"/>
       <use x="56.201172" xlink:href="#Roboto-Regular-2e"/>
       <use x="82.568359" xlink:href="#Roboto-Regular-35"/>
       <use x="138.769531" xlink:href="#Roboto-Regular-30"/>
      </g>
     </g>
    </g>
    <g id="ytick_8">
     <g id="line2d_14">
      <g>
       <use style="stroke:#000000;stroke-width:0.8;" x="57.6" xlink:href="#mc6d82a8511" y="85.253903"/>
      </g>
     </g>
     <g id="text_15">
      <!-- 1.75 -->
      <g transform="translate(31.101562 89.003903)scale(0.1 -0.1)">
       <use xlink:href="#Roboto-Regular-31"/>
       <use x="56.201172" xlink:href="#Roboto-Regular-2e"/>
       <use x="82.568359" xlink:href="#Roboto-Regular-37"/>
       <use x="138.769531" xlink:href="#Roboto-Regular-35"/>
      </g>
     </g>
    </g>
    <g id="ytick_9">
     <g id="line2d_15">
      <g>
       <use style="stroke:#000000;stroke-width:0.8;" x="57.6" xlink:href="#mc6d82a8511" y="55.220235"/>
      </g>
     </g>
     <g id="text_16">
      <!-- 2.00 -->
      <g transform="translate(31.101562 58.970235)scale(0.1 -0.1)">
       <use xlink:href="#Roboto-Regular-32"/>
       <use x="56.201172" xlink:href="#Roboto-Regular-2e"/>
       <use x="82.568359" xlink:href="#Roboto-Regular-30"/>
       <use x="138.769531" xlink:href="#Roboto-Regular-30"/>
      </g>
     </g>
    </g>
    <g id="text_17">
     <!-- Emissivity (ph cm^3 s^-1 A-1) -->
     <g transform="translate(24.80625 239.181906)rotate(-90)scale(0.1 -0.1)">
      <defs>
       <path d="M 528 0 
L 528 4550 
L 3388 4550 
L 3388 4056 
L 1131 4056 
L 1131 2594 
L 3100 2594 
L 3100 2103 
L 1131 2103 
L 1131 491 
L 3419 491 
L 3419 0 
L 528 0 
z
" id="Roboto-Regular-45" transform="scale(0.015625)"/>
       <path d="M 1794 2956 
Q 1225 2956 1016 2478 
L 1016 0 
L 434 0 
L 434 3381 
L 984 3381 
L 1000 3013 
Q 1366 3444 2000 3444 
Q 2325 3444 2579 3314 
Q 2834 3184 2969 2900 
Q 3138 3144 3408 3294 
Q 3678 3444 4044 3444 
Q 4588 3444 4883 3153 
Q 5178 2863 5178 2222 
L 5178 0 
L 4597 0 
L 4597 2228 
Q 4597 2653 4401 2804 
Q 4206 2956 3875 2956 
Q 3525 2956 3325 2748 
Q 3125 2541 3094 2244 
L 3094 0 
L 2516 0 
L 2516 2225 
Q 2516 2622 2319 2789 
Q 2122 2956 1794 2956 
z
" id="Roboto-Regular-6d" transform="scale(0.015625)"/>
       <path d="M 444 4278 
Q 444 4419 530 4516 
Q 616 4613 784 4613 
Q 950 4613 1039 4516 
Q 1128 4419 1128 4278 
Q 1128 4144 1039 4048 
Q 950 3953 784 3953 
Q 616 3953 530 4048 
Q 444 4144 444 4278 
z
M 1069 3381 
L 1069 0 
L 488 0 
L 488 3381 
L 1069 3381 
z
" id="Roboto-Regular-69" transform="scale(0.015625)"/>
       <path d="M 2409 897 
Q 2409 1081 2273 1229 
Q 2138 1378 1647 1478 
Q 1081 1594 747 1814 
Q 413 2034 413 2456 
Q 413 2856 755 3150 
Q 1097 3444 1666 3444 
Q 2272 3444 2612 3134 
Q 2953 2825 2953 2388 
L 2375 2388 
Q 2375 2597 2190 2783 
Q 2006 2969 1666 2969 
Q 1306 2969 1150 2812 
Q 994 2656 994 2472 
Q 994 2288 1139 2173 
Q 1284 2059 1756 1953 
Q 2378 1813 2683 1584 
Q 2988 1356 2988 941 
Q 2988 494 2630 215 
Q 2272 -63 1681 -63 
Q 1009 -63 653 281 
Q 297 625 297 1044 
L 878 1044 
Q 897 684 1155 548 
Q 1413 413 1681 413 
Q 2034 413 2221 550 
Q 2409 688 2409 897 
z
" id="Roboto-Regular-73" transform="scale(0.015625)"/>
       <path d="M 1594 -522 
Q 1294 -1316 688 -1363 
L 591 -1366 
Q 406 -1366 266 -1316 
L 263 -847 
L 419 -859 
Q 713 -859 878 -739 
Q 1044 -619 1150 -306 
L 1275 38 
L 69 3381 
L 700 3381 
L 1547 850 
L 2331 3381 
L 2950 3381 
L 1594 -522 
z
" id="Roboto-Regular-79" transform="scale(0.015625)"/>
       <path d="M 1984 -63 
Q 1375 -63 1019 328 
L 1019 -1300 
L 438 -1300 
L 438 3381 
L 969 3381 
L 997 3009 
Q 1353 3444 1975 3444 
Q 2616 3444 2956 2969 
Q 3297 2494 3297 1719 
L 3297 1653 
Q 3297 913 2955 425 
Q 2613 -63 1984 -63 
z
M 1806 2956 
Q 1281 2956 1019 2491 
L 1019 872 
Q 1284 413 1813 413 
Q 2281 413 2498 781 
Q 2716 1150 2716 1653 
L 2716 1719 
Q 2716 2222 2498 2589 
Q 2281 2956 1806 2956 
z
" id="Roboto-Regular-70" transform="scale(0.015625)"/>
       <path d="M 1794 413 
Q 2103 413 2336 597 
Q 2569 781 2591 1069 
L 3141 1069 
Q 3119 616 2725 276 
Q 2331 -63 1794 -63 
Q 1031 -63 661 440 
Q 291 944 291 1625 
L 291 1756 
Q 291 2438 661 2941 
Q 1031 3444 1794 3444 
Q 2388 3444 2753 3092 
Q 3119 2741 3141 2219 
L 2591 2219 
Q 2569 2531 2355 2750 
Q 2141 2969 1794 2969 
Q 1438 2969 1236 2787 
Q 1034 2606 951 2328 
Q 869 2050 869 1756 
L 869 1625 
Q 869 1328 950 1050 
Q 1031 772 1232 592 
Q 1434 413 1794 413 
z
" id="Roboto-Regular-63" transform="scale(0.015625)"/>
       <path d="M 200 2278 
L 1134 4550 
L 1534 4550 
L 2466 2278 
L 1928 2278 
L 1334 3788 
L 738 2278 
L 200 2278 
z
" id="Roboto-Regular-5e" transform="scale(0.015625)"/>
       <path d="M 1222 2084 
L 1222 2559 
L 1647 2559 
Q 2094 2563 2312 2784 
Q 2531 3006 2531 3338 
Q 2531 4138 1738 4138 
Q 1369 4138 1141 3927 
Q 913 3716 913 3359 
L 334 3359 
Q 334 3881 720 4247 
Q 1106 4613 1738 4613 
Q 2353 4613 2733 4286 
Q 3113 3959 3113 3325 
Q 3113 3072 2942 2784 
Q 2772 2497 2397 2338 
Q 2850 2191 3015 1884 
Q 3181 1578 3181 1269 
Q 3181 631 2768 284 
Q 2356 -63 1741 -63 
Q 1147 -63 722 267 
Q 297 597 297 1203 
L 875 1203 
Q 875 844 1108 628 
Q 1341 413 1741 413 
Q 2138 413 2369 622 
Q 2600 831 2600 1256 
Q 2600 1681 2337 1882 
Q 2075 2084 1634 2084 
L 1222 2084 
z
" id="Roboto-Regular-33" transform="scale(0.015625)"/>
       <path d="M 1644 2172 
L 1644 1697 
L 119 1697 
L 119 2172 
L 1644 2172 
z
" id="Roboto-Regular-2d" transform="scale(0.015625)"/>
      </defs>
      <use xlink:href="#Roboto-Regular-45"/>
      <use x="56.835938" xlink:href="#Roboto-Regular-6d"/>
      <use x="144.53125" xlink:href="#Roboto-Regular-69"/>
      <use x="168.847656" xlink:href="#Roboto-Regular-73"/>
      <use x="220.458984" xlink:href="#Roboto-Regular-73"/>
      <use x="272.070312" xlink:href="#Roboto-Regular-69"/>
      <use x="296.386719" xlink:href="#Roboto-Regular-76"/>
      <use x="344.824219" xlink:href="#Roboto-Regular-69"/>
      <use x="369.140625" xlink:href="#Roboto-Regular-74"/>
      <use x="401.855469" xlink:href="#Roboto-Regular-79"/>
      <use x="449.169922" xlink:href="#Roboto-Regular-20"/>
      <use x="473.974609" xlink:href="#Roboto-Regular-28"/>
      <use x="508.203125" xlink:href="#Roboto-Regular-70"/>
      <use x="564.355469" xlink:href="#Roboto-Regular-68"/>
      <use x="619.433594" xlink:href="#Roboto-Regular-20"/>
      <use x="644.238281" xlink:href="#Roboto-Regular-63"/>
      <use x="696.582031" xlink:href="#Roboto-Regular-6d"/>
      <use x="784.277344" xlink:href="#Roboto-Regular-5e"/>
      <use x="826.074219" xlink:href="#Roboto-Regular-33"/>
      <use x="882.275391" xlink:href="#Roboto-Regular-20"/>
      <use x="907.080078" xlink:href="#Roboto-Regular-73"/>
      <use x="958.691406" xlink:href="#Roboto-Regular-5e"/>
      <use x="1000.488281" xlink:href="#Roboto-Regular-2d"/>
      <use x="1028.125" xlink:href="#Roboto-Regular-31"/>
      <use x="1084.326172" xlink:href="#Roboto-Regular-20"/>
      <use x="1109.130859" xlink:href="#Roboto-Regular-41"/>
      <use x="1174.365234" xlink:href="#Roboto-Regular-2d"/>
      <use x="1202.001953" xlink:href="#Roboto-Regular-31"/>
      <use x="1258.203125" xlink:href="#Roboto-Regular-29"/>
     </g>
    </g>
    <g id="text_18">
     <!-- 1e−8 -->
     <g transform="translate(57.6 38.472)scale(0.1 -0.1)">
      <defs>
       <path d="M 3134 2509 
L 3134 2034 
L 525 2034 
L 525 2509 
L 3134 2509 
z
" id="Roboto-Regular-2212" transform="scale(0.015625)"/>
      </defs>
      <use xlink:href="#Roboto-Regular-31"/>
      <use x="56.201172" xlink:href="#Roboto-Regular-65"/>
      <use x="109.228516" xlink:href="#Roboto-Regular-2212"/>
      <use x="166.40625" xlink:href="#Roboto-Regular-38"/>
     </g>
    </g>
   </g>
   <g id="line2d_16">
    <path clip-path="url(#p485934ec59)" d="M 50.4576 295.487879 
L 50.4576 295.486875 
L 57.6 295.486875 
L 57.6 295.487607 
L 64.7424 295.487607 
L 64.7424 295.487852 
L 71.8848 295.487852 
L 71.8848 295.487372 
L 79.0272 295.487372 
L 79.0272 295.487952 
L 86.1696 295.487952 
L 86.1696 295.487169 
L 93.312 295.487169 
L 93.312 295.486887 
L 100.4544 295.486887 
L 100.4544 295.476372 
L 107.5968 295.476372 
L 107.5968 295.486421 
L 114.7392 295.486421 
L 114.7392 295.487532 
L 121.8816 295.487532 
L 121.8816 295.487153 
L 129.024 295.487153 
L 129.024 295.487843 
L 136.1664 295.487843 
L 136.1664 295.487912 
L 143.3088 295.487912 
L 143.3088 295.487979 
L 150.4512 295.487979 
L 150.4512 295.487979 
L 157.5936 295.487979 
L 157.5936 295.483382 
L 164.736 295.483382 
L 164.736 295.488 
L 171.8784 295.488 
L 171.8784 295.485444 
L 179.0208 295.485444 
L 179.0208 295.487983 
L 186.1632 295.487983 
L 186.1632 295.485408 
L 193.3056 295.485408 
L 193.3056 295.487967 
L 200.448 295.487967 
L 200.448 295.48764 
L 207.5904 295.48764 
L 207.5904 295.480758 
L 214.7328 295.480758 
L 214.7328 295.480997 
L 221.8752 295.480997 
L 221.8752 53.568 
L 229.0176 53.568 
L 229.0176 174.462871 
L 236.16 174.462871 
L 236.16 295.486823 
L 243.3024 295.486823 
L 243.3024 295.486268 
L 250.4448 295.486268 
L 250.4448 295.482916 
L 257.5872 295.482916 
L 257.5872 295.486846 
L 264.7296 295.486846 
L 264.7296 295.47848 
L 271.872 295.47848 
L 271.872 295.473709 
L 279.0144 295.473709 
L 279.0144 295.487064 
L 286.1568 295.487064 
L 286.1568 295.304225 
L 293.2992 295.304225 
L 293.2992 295.487541 
L 300.4416 295.487541 
L 300.4416 295.485373 
L 307.584 295.485373 
L 307.584 295.486808 
L 314.7264 295.486808 
L 314.7264 295.473605 
L 321.8688 295.473605 
L 321.8688 295.48672 
L 329.0112 295.48672 
L 329.0112 295.487471 
L 336.1536 295.487471 
L 336.1536 295.485814 
L 343.296 295.485814 
L 343.296 295.487223 
L 350.4384 295.487223 
L 350.4384 295.486216 
L 357.5808 295.486216 
L 357.5808 295.487491 
L 364.7232 295.487491 
L 364.7232 295.485679 
L 371.8656 295.485679 
L 371.8656 295.487236 
L 379.008 295.487236 
L 379.008 295.487174 
L 386.1504 295.487174 
L 386.1504 295.487308 
L 393.2928 295.487308 
L 393.2928 295.487155 
L 400.4352 295.487155 
L 400.4352 295.487325 
L 407.5776 295.487325 
L 407.5776 295.486643 
L 414.72 295.486643 
L 414.72 295.487058 
L 421.8624 295.487058 
" style="fill:none;stroke:#1f77b4;stroke-linecap:square;stroke-width:1.5;"/>
   </g>
   <g id="line2d_17">
    <path clip-path="url(#p485934ec59)" d="M 50.4576 295.487794 
L 50.4576 295.487171 
L 57.6 295.487171 
L 57.6 295.487438 
L 64.7424 295.487438 
L 64.7424 295.487738 
L 71.8848 295.487738 
L 71.8848 295.487564 
L 79.0272 295.487564 
L 79.0272 295.487695 
L 86.1696 295.487695 
L 86.1696 295.487224 
L 93.312 295.487224 
L 93.312 295.485522 
L 100.4544 295.485522 
L 100.4544 295.48134 
L 107.5968 295.48134 
L 107.5968 295.483441 
L 114.7392 295.483441 
L 114.7392 295.486967 
L 121.8816 295.486967 
L 121.8816 295.487398 
L 129.024 295.487398 
L 129.024 295.487682 
L 136.1664 295.487682 
L 136.1664 295.487875 
L 143.3088 295.487875 
L 143.3088 295.487902 
L 150.4512 295.487902 
L 150.4512 295.48629 
L 157.5936 295.48629 
L 157.5936 295.485381 
L 164.736 295.485381 
L 164.736 295.487336 
L 171.8784 295.487336 
L 171.8784 295.486307 
L 179.0208 295.486307 
L 179.0208 295.487291 
L 186.1632 295.487291 
L 186.1632 295.486002 
L 193.3056 295.486002 
L 193.3056 295.427778 
L 200.448 295.427778 
L 200.448 293.871915 
L 207.5904 293.871915 
L 207.5904 278.632771 
L 214.7328 278.632771 
L 214.7328 225.629372 
L 221.8752 225.629372 
L 221.8752 172.422113 
L 229.0176 172.422113 
L 229.0176 194.218965 
L 236.16 194.218965 
L 236.16 254.055189 
L 243.3024 254.055189 
L 243.3024 287.38897 
L 250.4448 287.38897 
L 250.4448 294.800497 
L 257.5872 294.800497 
L 257.5872 295.460599 
L 264.7296 295.460599 
L 264.7296 295.47789 
L 271.872 295.47789 
L 271.872 295.472717 
L 279.0144 295.472717 
L 279.0144 295.425001 
L 286.1568 295.425001 
L 286.1568 295.39663 
L 293.2992 295.39663 
L 293.2992 295.462292 
L 300.4416 295.462292 
L 300.4416 295.485054 
L 307.584 295.485054 
L 307.584 295.485 
L 314.7264 295.485 
L 314.7264 295.478469 
L 321.8688 295.478469 
L 321.8688 295.483134 
L 329.0112 295.483134 
L 329.0112 295.487196 
L 336.1536 295.487196 
L 336.1536 295.486685 
L 343.296 295.486685 
L 343.296 295.486575 
L 350.4384 295.486575 
L 350.4384 295.486608 
L 357.5808 295.486608 
L 357.5808 295.486783 
L 364.7232 295.486783 
L 364.7232 295.486385 
L 371.8656 295.486385 
L 371.8656 295.486807 
L 379.008 295.486807 
L 379.008 295.487241 
L 386.1504 295.487241 
L 386.1504 295.48724 
L 393.2928 295.48724 
L 393.2928 295.487192 
L 400.4352 295.487192 
L 400.4352 295.487186 
L 407.5776 295.487186 
L 407.5776 295.486744 
L 414.72 295.486744 
L 414.72 295.483702 
L 421.8624 295.483702 
" style="fill:none;stroke:#ff7f0e;stroke-linecap:square;stroke-width:1.5;"/>
   </g>
   <g id="line2d_18">
    <path clip-path="url(#p485934ec59)" d="M 50.4576 295.487099 
L 50.4576 295.48711 
L 57.6 295.48711 
L 57.6 295.487055 
L 64.7424 295.487055 
L 64.7424 295.486932 
L 71.8848 295.486932 
L 71.8848 295.48675 
L 79.0272 295.48675 
L 79.0272 295.486509 
L 86.1696 295.486509 
L 86.1696 295.486155 
L 93.312 295.486155 
L 93.312 295.485457 
L 100.4544 295.485457 
L 100.4544 295.483682 
L 107.5968 295.483682 
L 107.5968 295.478818 
L 114.7392 295.478818 
L 114.7392 295.465875 
L 121.8816 295.465875 
L 121.8816 295.433522 
L 129.024 295.433522 
L 129.024 295.358089 
L 136.1664 295.358089 
L 136.1664 295.194275 
L 143.3088 295.194275 
L 143.3088 294.863155 
L 150.4512 294.863155 
L 150.4512 294.240534 
L 157.5936 294.240534 
L 157.5936 293.152572 
L 164.736 293.152572 
L 164.736 291.389114 
L 171.8784 291.389114 
L 171.8784 288.743896 
L 179.0208 288.743896 
L 179.0208 285.08454 
L 186.1632 285.08454 
L 186.1632 280.440119 
L 193.3056 280.440119 
L 193.3056 275.076759 
L 200.448 275.076759 
L 200.448 269.521439 
L 207.5904 269.521439 
L 207.5904 264.501982 
L 214.7328 264.501982 
L 214.7328 260.800009 
L 221.8752 260.800009 
L 221.8752 259.05367 
L 229.0176 259.05367 
L 229.0176 259.577815 
L 236.16 259.577815 
L 236.16 262.271164 
L 243.3024 262.271164 
L 243.3024 266.648104 
L 250.4448 266.648104 
L 250.4448 271.981397 
L 257.5872 271.981397 
L 257.5872 277.498389 
L 264.7296 277.498389 
L 264.7296 282.558543 
L 271.872 282.558543 
L 271.872 286.758606 
L 279.0144 286.758606 
L 279.0144 289.949517 
L 286.1568 289.949517 
L 286.1568 292.183756 
L 293.2992 292.183756 
L 293.2992 293.632588 
L 300.4416 293.632588 
L 300.4416 294.505875 
L 307.584 294.505875 
L 307.584 294.996649 
L 314.7264 294.996649 
L 314.7264 295.25452 
L 321.8688 295.25452 
L 321.8688 295.381734 
L 329.0112 295.381734 
L 329.0112 295.440951 
L 336.1536 295.440951 
L 336.1536 295.467146 
L 343.296 295.467146 
L 343.296 295.478248 
L 350.4384 295.478248 
L 350.4384 295.48272 
L 357.5808 295.48272 
L 357.5808 295.48424 
L 364.7232 295.48424 
L 364.7232 295.48423 
L 371.8656 295.48423 
L 371.8656 295.483102 
L 379.008 295.483102 
L 379.008 295.480846 
L 386.1504 295.480846 
L 386.1504 295.477321 
L 393.2928 295.477321 
L 393.2928 295.47244 
L 400.4352 295.47244 
L 400.4352 295.46632 
L 407.5776 295.46632 
L 407.5776 295.459377 
L 414.72 295.459377 
L 414.72 295.452345 
L 421.8624 295.452345 
" style="fill:none;stroke:#2ca02c;stroke-linecap:square;stroke-width:1.5;"/>
   </g>
   <g id="line2d_19">
    <path clip-path="url(#p485934ec59)" d="M 50.4576 295.408069 
L 50.4576 295.366092 
L 57.6 295.366092 
L 57.6 295.304876 
L 64.7424 295.304876 
L 64.7424 295.21738 
L 71.8848 295.21738 
L 71.8848 295.094685 
L 79.0272 295.094685 
L 79.0272 294.926029 
L 86.1696 294.926029 
L 86.1696 294.698759 
L 93.312 294.698759 
L 93.312 294.398473 
L 100.4544 294.398473 
L 100.4544 294.009856 
L 107.5968 294.009856 
L 107.5968 293.517085 
L 114.7392 293.517085 
L 114.7392 292.905116 
L 121.8816 292.905116 
L 121.8816 292.161424 
L 129.024 292.161424 
L 129.024 291.2772 
L 136.1664 291.2772 
L 136.1664 290.249109 
L 143.3088 290.249109 
L 143.3088 289.081824 
L 150.4512 289.081824 
L 150.4512 287.78862 
L 157.5936 287.78862 
L 157.5936 286.392287 
L 164.736 286.392287 
L 164.736 284.925885 
L 171.8784 284.925885 
L 171.8784 283.432066 
L 179.0208 283.432066 
L 179.0208 281.961151 
L 186.1632 281.961151 
L 186.1632 280.568427 
L 193.3056 280.568427 
L 193.3056 279.311173 
L 200.448 279.311173 
L 200.448 278.244832 
L 207.5904 278.244832 
L 207.5904 277.418869 
L 214.7328 277.418869 
L 214.7328 276.872832 
L 221.8752 276.872832 
L 221.8752 276.633332 
L 229.0176 276.633332 
L 229.0176 276.711892 
L 236.16 276.711892 
L 236.16 277.104026 
L 243.3024 277.104026 
L 243.3024 277.789665 
L 250.4448 277.789665 
L 250.4448 278.734842 
L 257.5872 278.734842 
L 257.5872 279.894458 
L 264.7296 279.894458 
L 264.7296 281.215848 
L 271.872 281.215848 
L 271.872 282.642709 
L 279.0144 282.642709 
L 279.0144 284.119005 
L 286.1568 284.119005 
L 286.1568 285.592466 
L 293.2992 285.592466 
L 293.2992 287.017481 
L 300.4416 287.017481 
L 300.4416 288.356946 
L 307.584 288.356946 
L 307.584 289.583389 
L 314.7264 289.583389 
L 314.7264 290.679059 
L 321.8688 290.679059 
L 321.8688 291.635321 
L 329.0112 291.635321 
L 329.0112 292.451456 
L 336.1536 292.451456 
L 336.1536 293.133117 
L 343.296 293.133117 
L 343.296 293.690632 
L 350.4384 293.690632 
L 350.4384 294.137346 
L 357.5808 294.137346 
L 357.5808 294.48813 
L 364.7232 294.48813 
L 364.7232 294.758164 
L 371.8656 294.758164 
L 371.8656 294.961957 
L 379.008 294.961957 
L 379.008 295.112714 
L 386.1504 295.112714 
L 386.1504 295.222078 
L 393.2928 295.222078 
L 393.2928 295.299859 
L 400.4352 295.299859 
L 400.4352 295.354095 
L 407.5776 295.354095 
L 407.5776 295.391189 
L 414.72 295.391189 
L 414.72 295.416087 
L 421.8624 295.416087 
" style="fill:none;stroke:#d62728;stroke-linecap:square;stroke-width:1.5;"/>
   </g>
   <g id="line2d_20">
    <path clip-path="url(#p485934ec59)" d="M 50.4576 295.48766 
L 50.4576 295.487475 
L 57.6 295.487475 
L 57.6 295.487477 
L 64.7424 295.487477 
L 64.7424 295.487571 
L 71.8848 295.487571 
L 71.8848 295.48753 
L 79.0272 295.48753 
L 79.0272 295.487164 
L 86.1696 295.487164 
L 86.1696 295.486262 
L 93.312 295.486262 
L 93.312 295.485028 
L 100.4544 295.485028 
L 100.4544 295.484281 
L 107.5968 295.484281 
L 107.5968 295.484658 
L 114.7392 295.484658 
L 114.7392 295.485804 
L 121.8816 295.485804 
L 121.8816 295.486871 
L 129.024 295.486871 
L 129.024 295.487463 
L 136.1664 295.487463 
L 136.1664 295.487608 
L 143.3088 295.487608 
L 143.3088 295.487082 
L 150.4512 295.487082 
L 150.4512 295.484685 
L 157.5936 295.484685 
L 157.5936 295.472805 
L 164.736 295.472805 
L 164.736 295.409549 
L 171.8784 295.409549 
L 171.8784 295.128502 
L 179.0208 295.128502 
L 179.0208 294.124924 
L 186.1632 294.124924 
L 186.1632 291.251614 
L 193.3056 291.251614 
L 193.3056 284.700848 
L 200.448 284.700848 
L 200.448 272.96273 
L 207.5904 272.96273 
L 207.5904 256.865777 
L 214.7328 256.865777 
L 214.7328 241.040534 
L 221.8752 241.040534 
L 221.8752 232.296062 
L 229.0176 232.296062 
L 229.0176 235.034845 
L 236.16 235.034845 
L 236.16 247.767033 
L 243.3024 247.767033 
L 243.3024 264.377417 
L 250.4448 264.377417 
L 250.4448 278.726709 
L 257.5872 278.726709 
L 257.5872 288.018868 
L 264.7296 288.018868 
L 264.7296 292.725594 
L 271.872 292.725594 
L 271.872 294.622221 
L 279.0144 294.622221 
L 279.0144 295.233154 
L 286.1568 295.233154 
L 286.1568 295.396738 
L 293.2992 295.396738 
L 293.2992 295.445161 
L 300.4416 295.445161 
L 300.4416 295.467762 
L 307.584 295.467762 
L 307.584 295.478003 
L 314.7264 295.478003 
L 314.7264 295.481035 
L 321.8688 295.481035 
L 321.8688 295.483122 
L 329.0112 295.483122 
L 329.0112 295.485461 
L 336.1536 295.485461 
L 336.1536 295.486572 
L 343.296 295.486572 
L 343.296 295.486705 
L 350.4384 295.486705 
L 350.4384 295.48663 
L 357.5808 295.48663 
L 357.5808 295.486595 
L 364.7232 295.486595 
L 364.7232 295.486628 
L 371.8656 295.486628 
L 371.8656 295.486778 
L 379.008 295.486778 
L 379.008 295.486831 
L 386.1504 295.486831 
L 386.1504 295.486255 
L 393.2928 295.486255 
L 393.2928 295.484192 
L 400.4352 295.484192 
L 400.4352 295.479094 
L 407.5776 295.479094 
L 407.5776 295.469034 
L 414.72 295.469034 
L 414.72 295.453203 
L 421.8624 295.453203 
" style="fill:none;stroke:#9467bd;stroke-linecap:square;stroke-width:1.5;"/>
   </g>
   <g id="patch_3">
    <path d="M 57.6 307.584 
L 57.6 41.472 
" style="fill:none;stroke:#000000;stroke-linecap:square;stroke-linejoin:miter;stroke-width:0.8;"/>
   </g>
   <g id="patch_4">
    <path d="M 414.72 307.584 
L 414.72 41.472 
" style="fill:none;stroke:#000000;stroke-linecap:square;stroke-linejoin:miter;stroke-width:0.8;"/>
   </g>
   <g id="patch_5">
    <path d="M 57.6 307.584 
L 414.72 307.584 
" style="fill:none;stroke:#000000;stroke-linecap:square;stroke-linejoin:miter;stroke-width:0.8;"/>
   </g>
   <g id="patch_6">
    <path d="M 57.6 41.472 
L 414.72 41.472 
" style="fill:none;stroke:#000000;stroke-linecap:square;stroke-linejoin:miter;stroke-width:0.8;"/>
   </g>
   <g id="legend_1">
    <g id="patch_7">
     <path d="M 325.399688 122.12825 
L 407.72 122.12825 
Q 409.72 122.12825 409.72 120.12825 
L 409.72 48.472 
Q 409.72 46.472 407.72 46.472 
L 325.399688 46.472 
Q 323.399688 46.472 323.399688 48.472 
L 323.399688 120.12825 
Q 323.399688 122.12825 325.399688 122.12825 
z
" style="fill:#ffffff;opacity:0.8;stroke:#cccccc;stroke-linejoin:miter;"/>
    </g>
    <g id="line2d_21">
     <path d="M 327.399688 54.472 
L 347.399688 54.472 
" style="fill:none;stroke:#1f77b4;stroke-linecap:square;stroke-width:1.5;"/>
    </g>
    <g id="line2d_22"/>
    <g id="text_19">
     <!-- none -->
     <g transform="translate(355.399688 57.972)scale(0.1 -0.1)">
      <defs>
       <path d="M 288 1725 
Q 288 2459 700 2951 
Q 1113 3444 1822 3444 
Q 2531 3444 2943 2961 
Q 3356 2478 3366 1756 
L 3366 1653 
Q 3366 919 2952 428 
Q 2538 -63 1828 -63 
Q 1116 -63 702 428 
Q 288 919 288 1653 
L 288 1725 
z
M 866 1653 
Q 866 1150 1105 781 
Q 1344 413 1828 413 
Q 2300 413 2540 777 
Q 2781 1141 2784 1644 
L 2784 1725 
Q 2784 2222 2543 2595 
Q 2303 2969 1822 2969 
Q 1344 2969 1105 2595 
Q 866 2222 866 1725 
L 866 1653 
z
" id="Roboto-Regular-6f" transform="scale(0.015625)"/>
      </defs>
      <use xlink:href="#Roboto-Regular-6e"/>
      <use x="55.224609" xlink:href="#Roboto-Regular-6f"/>
      <use x="112.255859" xlink:href="#Roboto-Regular-6e"/>
      <use x="167.480469" xlink:href="#Roboto-Regular-65"/>
     </g>
    </g>
    <g id="line2d_23">
     <path d="M 327.399688 69.00325 
L 347.399688 69.00325 
" style="fill:none;stroke:#ff7f0e;stroke-linecap:square;stroke-width:1.5;"/>
    </g>
    <g id="line2d_24"/>
    <g id="text_20">
     <!-- T=1keV -->
     <g transform="translate(355.399688 72.50325)scale(0.1 -0.1)">
      <defs>
       <path d="M 156 4056 
L 156 4550 
L 3672 4550 
L 3672 4056 
L 2209 4056 
L 2209 0 
L 1616 0 
L 1616 4056 
L 156 4056 
z
" id="Roboto-Regular-54" transform="scale(0.015625)"/>
       <path d="M 3081 3047 
L 3081 2544 
L 475 2544 
L 475 3047 
L 3081 3047 
z
M 3081 1750 
L 3081 1247 
L 475 1247 
L 475 1750 
L 3081 1750 
z
" id="Roboto-Regular-3d" transform="scale(0.015625)"/>
       <path d="M 2559 0 
L 1388 1569 
L 1022 1191 
L 1022 0 
L 441 0 
L 441 4800 
L 1022 4800 
L 1022 1900 
L 1331 2269 
L 2381 3381 
L 3088 3381 
L 1769 1972 
L 3241 0 
L 2559 0 
z
" id="Roboto-Regular-6b" transform="scale(0.015625)"/>
       <path d="M 3991 4550 
L 2306 0 
L 1772 0 
L 91 4550 
L 744 4550 
L 2034 800 
L 3338 4550 
L 3991 4550 
z
" id="Roboto-Regular-56" transform="scale(0.015625)"/>
      </defs>
      <use xlink:href="#Roboto-Regular-54"/>
      <use x="59.667969" xlink:href="#Roboto-Regular-3d"/>
      <use x="114.550781" xlink:href="#Roboto-Regular-31"/>
      <use x="170.751953" xlink:href="#Roboto-Regular-6b"/>
      <use x="221.435547" xlink:href="#Roboto-Regular-65"/>
      <use x="274.462891" xlink:href="#Roboto-Regular-56"/>
     </g>
    </g>
    <g id="line2d_25">
     <path d="M 327.399688 83.5345 
L 347.399688 83.5345 
" style="fill:none;stroke:#2ca02c;stroke-linecap:square;stroke-width:1.5;"/>
    </g>
    <g id="line2d_26"/>
    <g id="text_21">
     <!-- v=300km/s -->
     <g transform="translate(355.399688 87.0345)scale(0.1 -0.1)">
      <defs>
       <path d="M 2453 4550 
L 556 -391 
L 59 -391 
L 1959 4550 
L 2453 4550 
z
" id="Roboto-Regular-2f" transform="scale(0.015625)"/>
      </defs>
      <use xlink:href="#Roboto-Regular-76"/>
      <use x="48.4375" xlink:href="#Roboto-Regular-3d"/>
      <use x="103.320312" xlink:href="#Roboto-Regular-33"/>
      <use x="159.521484" xlink:href="#Roboto-Regular-30"/>
      <use x="215.722656" xlink:href="#Roboto-Regular-30"/>
      <use x="271.923828" xlink:href="#Roboto-Regular-6b"/>
      <use x="322.607422" xlink:href="#Roboto-Regular-6d"/>
      <use x="410.302734" xlink:href="#Roboto-Regular-2f"/>
      <use x="451.5625" xlink:href="#Roboto-Regular-73"/>
     </g>
    </g>
    <g id="line2d_27">
     <path d="M 327.399688 98.06575 
L 347.399688 98.06575 
" style="fill:none;stroke:#d62728;stroke-linecap:square;stroke-width:1.5;"/>
    </g>
    <g id="line2d_28"/>
    <g id="text_22">
     <!-- v=600km/s -->
     <g transform="translate(355.399688 101.56575)scale(0.1 -0.1)">
      <defs>
       <path d="M 3291 1484 
Q 3291 838 2930 387 
Q 2569 -63 1878 -63 
Q 1388 -63 1063 198 
Q 738 459 577 861 
Q 416 1263 416 1684 
L 416 1956 
Q 416 2597 595 3194 
Q 775 3791 1247 4173 
Q 1719 4556 2597 4556 
L 2647 4556 
L 2647 4066 
Q 2041 4066 1705 3853 
Q 1369 3641 1205 3302 
Q 1041 2963 1006 2575 
Q 1369 2984 1984 2984 
Q 2438 2984 2727 2765 
Q 3016 2547 3153 2201 
Q 3291 1856 3291 1484 
z
M 997 1666 
Q 997 1059 1267 737 
Q 1538 416 1878 416 
Q 2278 416 2498 708 
Q 2719 1000 2719 1456 
Q 2719 1863 2516 2184 
Q 2313 2506 1891 2506 
Q 1588 2506 1341 2325 
Q 1094 2144 997 1884 
L 997 1666 
z
" id="Roboto-Regular-36" transform="scale(0.015625)"/>
      </defs>
      <use xlink:href="#Roboto-Regular-76"/>
      <use x="48.4375" xlink:href="#Roboto-Regular-3d"/>
      <use x="103.320312" xlink:href="#Roboto-Regular-36"/>
      <use x="159.521484" xlink:href="#Roboto-Regular-30"/>
      <use x="215.722656" xlink:href="#Roboto-Regular-30"/>
      <use x="271.923828" xlink:href="#Roboto-Regular-6b"/>
      <use x="322.607422" xlink:href="#Roboto-Regular-6d"/>
      <use x="410.302734" xlink:href="#Roboto-Regular-2f"/>
      <use x="451.5625" xlink:href="#Roboto-Regular-73"/>
     </g>
    </g>
    <g id="line2d_29">
     <path d="M 327.399688 112.597 
L 347.399688 112.597 
" style="fill:none;stroke:#9467bd;stroke-linecap:square;stroke-width:1.5;"/>
    </g>
    <g id="line2d_30"/>
    <g id="text_23">
     <!-- T=5.0keV -->
     <g transform="translate(355.399688 116.097)scale(0.1 -0.1)">
      <use xlink:href="#Roboto-Regular-54"/>
      <use x="59.667969" xlink:href="#Roboto-Regular-3d"/>
      <use x="114.550781" xlink:href="#Roboto-Regular-35"/>
      <use x="170.751953" xlink:href="#Roboto-Regular-2e"/>
      <use x="197.119141" xlink:href="#Roboto-Regular-30"/>
      <use x="253.320312" xlink:href="#Roboto-Regular-6b"/>
      <use x="304.003906" xlink:href="#Roboto-Regular-65"/>
      <use x="357.03125" xlink:href="#Roboto-Regular-56"/>
     </g>
    </g>
   </g>
  </g>
 </g>
 <defs>
  <clipPath id="p485934ec59">
   <rect height="266.112" width="357.12" x="57.6" y="41.472"/>
  </clipPath>
 </defs>
</svg>
