<?xml version="1.0" encoding="utf-8" standalone="no"?>
<!DOCTYPE svg PUBLIC "-//W3C//DTD SVG 1.1//EN"
  "http://www.w3.org/Graphics/SVG/1.1/DTD/svg11.dtd">
<svg height="345.6pt" version="1.1" viewBox="0 0 460.8 345.6" width="460.8pt" xmlns="http://www.w3.org/2000/svg" xmlns:xlink="http://www.w3.org/1999/xlink">
 <metadata>
  <rdf:RDF xmlns:cc="http://creativecommons.org/ns#" xmlns:dc="http://purl.org/dc/elements/1.1/" xmlns:rdf="http://www.w3.org/1999/02/22-rdf-syntax-ns#">
   <cc:Work>
    <dc:type rdf:resource="http://purl.org/dc/dcmitype/StillImage"/>
    <dc:date>2023-01-27T17:25:28.931194</dc:date>
    <dc:format>image/svg+xml</dc:format>
    <dc:creator>
     <cc:Agent>
      <dc:title>Matplotlib v3.4.3, https://matplotlib.org/</dc:title>
     </cc:Agent>
    </dc:creator>
   </cc:Work>
  </rdf:RDF>
 </metadata>
 <defs>
  <style type="text/css">*{stroke-linecap:butt;stroke-linejoin:round;}</style>
 </defs>
 <g id="figure_1">
  <g id="patch_1">
   <path d="M 0 345.6 
L 460.8 345.6 
L 460.8 0 
L 0 0 
z
" style="fill:#ffffff;"/>
  </g>
  <g id="axes_1">
   <g id="patch_2">
    <path d="M 57.6 162.432 
L 414.72 162.432 
L 414.72 41.472 
L 57.6 41.472 
z
" style="fill:#ffffff;"/>
   </g>
   <g id="matplotlib.axis_1">
    <g id="xtick_1">
     <g id="line2d_1">
      <defs>
       <path d="M 0 0 
L 0 3.5 
" id="m77ccf876de" style="stroke:#000000;stroke-width:0.8;"/>
      </defs>
      <g>
       <use style="stroke:#000000;stroke-width:0.8;" x="106.298182" xlink:href="#m77ccf876de" y="162.432"/>
      </g>
     </g>
     <g id="text_1">
      <!-- 15 -->
      <g transform="translate(100.677869 176.932)scale(0.1 -0.1)">
       <defs>
        <path d="M 2278 4575 
L 2278 0 
L 1700 0 
L 1700 3853 
L 534 3428 
L 534 3950 
L 2188 4575 
L 2278 4575 
z
" id="Roboto-Regular-31" transform="scale(0.015625)"/>
        <path d="M 1109 2166 
L 647 2284 
L 875 4550 
L 3209 4550 
L 3209 4016 
L 1366 4016 
L 1228 2778 
Q 1572 2975 1988 2975 
Q 2616 2975 2980 2561 
Q 3344 2147 3344 1450 
Q 3344 797 2987 367 
Q 2631 -63 1903 -63 
Q 1350 -63 947 248 
Q 544 559 481 1197 
L 1031 1197 
Q 1141 413 1903 413 
Q 2313 413 2538 691 
Q 2763 969 2763 1444 
Q 2763 1872 2527 2164 
Q 2291 2456 1853 2456 
Q 1563 2456 1413 2378 
Q 1263 2300 1109 2166 
z
" id="Roboto-Regular-35" transform="scale(0.015625)"/>
       </defs>
       <use xlink:href="#Roboto-Regular-31"/>
       <use x="56.201172" xlink:href="#Roboto-Regular-35"/>
      </g>
     </g>
    </g>
    <g id="xtick_2">
     <g id="line2d_2">
      <g>
       <use style="stroke:#000000;stroke-width:0.8;" x="171.229091" xlink:href="#m77ccf876de" y="162.432"/>
      </g>
     </g>
     <g id="text_2">
      <!-- 16 -->
      <g transform="translate(165.608778 176.932)scale(0.1 -0.1)">
       <defs>
        <path d="M 3291 1484 
Q 3291 838 2930 387 
Q 2569 -63 1878 -63 
Q 1388 -63 1063 198 
Q 738 459 577 861 
Q 416 1263 416 1684 
L 416 1956 
Q 416 2597 595 3194 
Q 775 3791 1247 4173 
Q 1719 4556 2597 4556 
L 2647 4556 
L 2647 4066 
Q 2041 4066 1705 3853 
Q 1369 3641 1205 3302 
Q 1041 2963 1006 2575 
Q 1369 2984 1984 2984 
Q 2438 2984 2727 2765 
Q 3016 2547 3153 2201 
Q 3291 1856 3291 1484 
z
M 997 1666 
Q 997 1059 1267 737 
Q 1538 416 1878 416 
Q 2278 416 2498 708 
Q 2719 1000 2719 1456 
Q 2719 1863 2516 2184 
Q 2313 2506 1891 2506 
Q 1588 2506 1341 2325 
Q 1094 2144 997 1884 
L 997 1666 
z
" id="Roboto-Regular-36" transform="scale(0.015625)"/>
       </defs>
       <use xlink:href="#Roboto-Regular-31"/>
       <use x="56.201172" xlink:href="#Roboto-Regular-36"/>
      </g>
     </g>
    </g>
    <g id="xtick_3">
     <g id="line2d_3">
      <g>
       <use style="stroke:#000000;stroke-width:0.8;" x="236.16" xlink:href="#m77ccf876de" y="162.432"/>
      </g>
     </g>
     <g id="text_3">
      <!-- 17 -->
      <g transform="translate(230.539688 176.932)scale(0.1 -0.1)">
       <defs>
        <path d="M 3319 4550 
L 3319 4225 
L 1434 0 
L 825 0 
L 2706 4075 
L 244 4075 
L 244 4550 
L 3319 4550 
z
" id="Roboto-Regular-37" transform="scale(0.015625)"/>
       </defs>
       <use xlink:href="#Roboto-Regular-31"/>
       <use x="56.201172" xlink:href="#Roboto-Regular-37"/>
      </g>
     </g>
    </g>
    <g id="xtick_4">
     <g id="line2d_4">
      <g>
       <use style="stroke:#000000;stroke-width:0.8;" x="301.090909" xlink:href="#m77ccf876de" y="162.432"/>
      </g>
     </g>
     <g id="text_4">
      <!-- 18 -->
      <g transform="translate(295.470597 176.932)scale(0.1 -0.1)">
       <defs>
        <path d="M 3244 1231 
Q 3244 606 2826 271 
Q 2409 -63 1796 -63 
Q 1184 -63 767 271 
Q 350 606 350 1231 
Q 350 1613 554 1905 
Q 759 2197 1109 2347 
Q 806 2494 629 2762 
Q 453 3031 453 3366 
Q 453 3963 833 4288 
Q 1213 4613 1794 4613 
Q 2378 4613 2758 4288 
Q 3138 3963 3138 3366 
Q 3138 3028 2956 2761 
Q 2775 2494 2472 2347 
Q 2825 2197 3034 1903 
Q 3244 1609 3244 1231 
z
M 2559 3356 
Q 2559 3697 2346 3917 
Q 2134 4138 1793 4138 
Q 1453 4138 1243 3927 
Q 1034 3716 1034 3356 
Q 1034 3003 1243 2790 
Q 1453 2578 1797 2578 
Q 2138 2578 2348 2790 
Q 2559 3003 2559 3356 
z
M 2663 1244 
Q 2663 1625 2420 1865 
Q 2178 2106 1791 2106 
Q 1394 2106 1161 1865 
Q 928 1625 928 1244 
Q 928 850 1161 631 
Q 1394 413 1797 413 
Q 2200 413 2431 631 
Q 2663 850 2663 1244 
z
" id="Roboto-Regular-38" transform="scale(0.015625)"/>
       </defs>
       <use xlink:href="#Roboto-Regular-31"/>
       <use x="56.201172" xlink:href="#Roboto-Regular-38"/>
      </g>
     </g>
    </g>
    <g id="xtick_5">
     <g id="line2d_5">
      <g>
       <use style="stroke:#000000;stroke-width:0.8;" x="366.021818" xlink:href="#m77ccf876de" y="162.432"/>
      </g>
     </g>
     <g id="text_5">
      <!-- 19 -->
      <g transform="translate(360.401506 176.932)scale(0.1 -0.1)">
       <defs>
        <path d="M 3175 2563 
Q 3175 2119 3098 1667 
Q 3022 1216 2801 836 
Q 2581 456 2151 225 
Q 1722 -6 953 -6 
L 953 484 
Q 1644 484 1980 700 
Q 2316 916 2448 1264 
Q 2581 1613 2597 2006 
Q 2416 1791 2162 1656 
Q 1909 1522 1613 1522 
Q 1163 1522 875 1747 
Q 588 1972 450 2320 
Q 313 2669 313 3041 
Q 313 3691 670 4152 
Q 1028 4613 1725 4613 
Q 2244 4613 2564 4344 
Q 2884 4075 3029 3653 
Q 3175 3231 3175 2772 
L 3175 2563 
z
M 881 3072 
Q 881 2666 1086 2334 
Q 1291 2003 1706 2003 
Q 2003 2003 2245 2181 
Q 2488 2359 2600 2622 
L 2600 2850 
Q 2600 3472 2336 3803 
Q 2072 4134 1725 4134 
Q 1322 4134 1101 3829 
Q 881 3525 881 3072 
z
" id="Roboto-Regular-39" transform="scale(0.015625)"/>
       </defs>
       <use xlink:href="#Roboto-Regular-31"/>
       <use x="56.201172" xlink:href="#Roboto-Regular-39"/>
      </g>
     </g>
    </g>
    <g id="text_6">
     <!-- Wavelength (A) -->
     <g transform="translate(202.150625 190.985125)scale(0.1 -0.1)">
      <defs>
       <path d="M 5541 4550 
L 4441 0 
L 3894 0 
L 2956 3316 
L 2884 3663 
L 2813 3316 
L 1841 0 
L 1294 0 
L 191 4550 
L 791 4550 
L 1509 1438 
L 1600 834 
L 1725 1375 
L 2628 4550 
L 3131 4550 
L 4009 1375 
L 4138 822 
L 4234 1441 
L 4938 4550 
L 5541 4550 
z
" id="Roboto-Regular-57" transform="scale(0.015625)"/>
       <path d="M 2528 0 
Q 2472 122 2447 356 
Q 2284 184 2040 60 
Q 1797 -63 1484 -63 
Q 966 -63 653 228 
Q 341 519 341 941 
Q 341 1484 753 1767 
Q 1166 2050 1863 2050 
L 2434 2050 
L 2434 2319 
Q 2434 2619 2254 2798 
Q 2075 2978 1722 2978 
Q 1394 2978 1192 2817 
Q 991 2656 991 2444 
L 413 2444 
Q 413 2806 778 3125 
Q 1144 3444 1756 3444 
Q 2306 3444 2659 3162 
Q 3013 2881 3013 2313 
L 3013 794 
Q 3013 325 3131 50 
L 3131 0 
L 2528 0 
z
M 1569 444 
Q 1881 444 2111 600 
Q 2341 756 2434 947 
L 2434 1644 
L 1897 1644 
Q 922 1625 922 1019 
Q 922 778 1084 611 
Q 1247 444 1569 444 
z
" id="Roboto-Regular-61" transform="scale(0.015625)"/>
       <path d="M 2984 3381 
L 1769 0 
L 1328 0 
L 103 3381 
L 697 3381 
L 1556 791 
L 2394 3381 
L 2984 3381 
z
" id="Roboto-Regular-76" transform="scale(0.015625)"/>
       <path d="M 3116 591 
Q 2950 341 2647 139 
Q 2344 -63 1844 -63 
Q 1138 -63 714 396 
Q 291 856 291 1572 
L 291 1703 
Q 291 2256 502 2645 
Q 713 3034 1050 3239 
Q 1388 3444 1769 3444 
Q 2494 3444 2826 2970 
Q 3159 2497 3159 1788 
L 3159 1528 
L 872 1528 
Q 884 1063 1148 736 
Q 1413 409 1875 409 
Q 2181 409 2393 534 
Q 2606 659 2766 869 
L 3116 591 
z
M 1769 2969 
Q 1425 2969 1187 2719 
Q 950 2469 891 2000 
L 2581 2000 
L 2581 2044 
Q 2559 2381 2386 2675 
Q 2213 2969 1769 2969 
z
" id="Roboto-Regular-65" transform="scale(0.015625)"/>
       <path d="M 1069 4800 
L 1069 0 
L 488 0 
L 488 4800 
L 1069 4800 
z
" id="Roboto-Regular-6c" transform="scale(0.015625)"/>
       <path d="M 1844 2956 
Q 1566 2956 1353 2806 
Q 1141 2656 1019 2416 
L 1019 0 
L 441 0 
L 441 3381 
L 988 3381 
L 1006 2959 
Q 1391 3444 2016 3444 
Q 2513 3444 2805 3166 
Q 3097 2888 3100 2231 
L 3100 0 
L 2519 0 
L 2519 2222 
Q 2519 2619 2345 2787 
Q 2172 2956 1844 2956 
z
" id="Roboto-Regular-6e" transform="scale(0.015625)"/>
       <path d="M 1725 -1334 
Q 1463 -1334 1081 -1206 
Q 700 -1078 472 -747 
L 775 -403 
Q 1150 -859 1681 -859 
Q 2091 -859 2334 -629 
Q 2578 -400 2578 44 
L 2578 341 
Q 2234 -63 1631 -63 
Q 1022 -63 662 425 
Q 303 913 303 1653 
L 303 1719 
Q 303 2494 661 2969 
Q 1019 3444 1638 3444 
Q 2259 3444 2603 3006 
L 2631 3381 
L 3156 3381 
L 3156 72 
Q 3156 -600 2756 -967 
Q 2356 -1334 1725 -1334 
z
M 881 1653 
Q 881 1150 1092 789 
Q 1303 428 1772 428 
Q 2322 428 2578 928 
L 2578 2469 
Q 2469 2678 2275 2817 
Q 2081 2956 1778 2956 
Q 1306 2956 1093 2589 
Q 881 2222 881 1719 
L 881 1653 
z
" id="Roboto-Regular-67" transform="scale(0.015625)"/>
       <path d="M 1872 0 
Q 1675 -63 1425 -63 
Q 1103 -63 875 134 
Q 647 331 647 841 
L 647 2938 
L 28 2938 
L 28 3381 
L 647 3381 
L 647 4203 
L 1225 4203 
L 1225 3381 
L 1856 3381 
L 1856 2938 
L 1225 2938 
L 1225 838 
Q 1225 578 1337 506 
Q 1450 434 1597 434 
Q 1706 434 1869 472 
L 1872 0 
z
" id="Roboto-Regular-74" transform="scale(0.015625)"/>
       <path d="M 1844 2956 
Q 1566 2956 1353 2806 
Q 1141 2656 1019 2416 
L 1019 0 
L 441 0 
L 441 4800 
L 1019 4800 
L 1019 2978 
Q 1403 3444 2016 3444 
Q 2513 3444 2805 3166 
Q 3097 2888 3100 2231 
L 3100 0 
L 2519 0 
L 2519 2222 
Q 2519 2619 2345 2787 
Q 2172 2956 1844 2956 
z
" id="Roboto-Regular-68" transform="scale(0.015625)"/>
       <path id="Roboto-Regular-20" transform="scale(0.015625)"/>
       <path d="M 419 1850 
Q 419 2756 678 3434 
Q 938 4113 1294 4541 
Q 1650 4969 1947 5134 
L 2069 4753 
Q 1700 4475 1348 3761 
Q 997 3047 997 1813 
Q 997 625 1348 -97 
Q 1700 -819 2069 -1119 
L 1947 -1469 
Q 1650 -1306 1294 -878 
Q 938 -450 678 226 
Q 419 903 419 1850 
z
" id="Roboto-Regular-28" transform="scale(0.015625)"/>
       <path d="M 91 0 
L 1825 4550 
L 2353 4550 
L 4094 0 
L 3475 0 
L 3041 1191 
L 1138 1191 
L 706 0 
L 91 0 
z
M 1319 1684 
L 2863 1684 
L 2091 3806 
L 1319 1684 
z
" id="Roboto-Regular-41" transform="scale(0.015625)"/>
       <path d="M 1772 1819 
Q 1772 906 1512 228 
Q 1253 -450 895 -878 
Q 538 -1306 244 -1469 
L 122 -1119 
Q 488 -841 841 -109 
Q 1194 622 1194 1856 
Q 1194 2647 1019 3236 
Q 844 3825 594 4212 
Q 344 4600 122 4781 
L 244 5134 
Q 538 4969 895 4541 
Q 1253 4113 1512 3436 
Q 1772 2759 1772 1819 
z
" id="Roboto-Regular-29" transform="scale(0.015625)"/>
      </defs>
      <use xlink:href="#Roboto-Regular-57"/>
      <use x="88.720703" xlink:href="#Roboto-Regular-61"/>
      <use x="143.115234" xlink:href="#Roboto-Regular-76"/>
      <use x="191.552734" xlink:href="#Roboto-Regular-65"/>
      <use x="244.580078" xlink:href="#Roboto-Regular-6c"/>
      <use x="268.896484" xlink:href="#Roboto-Regular-65"/>
      <use x="321.923828" xlink:href="#Roboto-Regular-6e"/>
      <use x="377.148438" xlink:href="#Roboto-Regular-67"/>
      <use x="433.300781" xlink:href="#Roboto-Regular-74"/>
      <use x="466.015625" xlink:href="#Roboto-Regular-68"/>
      <use x="521.09375" xlink:href="#Roboto-Regular-20"/>
      <use x="545.898438" xlink:href="#Roboto-Regular-28"/>
      <use x="580.126953" xlink:href="#Roboto-Regular-41"/>
      <use x="645.361328" xlink:href="#Roboto-Regular-29"/>
     </g>
    </g>
   </g>
   <g id="matplotlib.axis_2">
    <g id="ytick_1">
     <g id="line2d_6">
      <defs>
       <path d="M 0 0 
L -3.5 0 
" id="mdf313aade2" style="stroke:#000000;stroke-width:0.8;"/>
      </defs>
      <g>
       <use style="stroke:#000000;stroke-width:0.8;" x="57.6" xlink:href="#mdf313aade2" y="156.934499"/>
      </g>
     </g>
     <g id="text_7">
      <!-- 0 -->
      <g transform="translate(44.979687 160.684499)scale(0.1 -0.1)">
       <defs>
        <path d="M 3234 1944 
Q 3234 825 2848 381 
Q 2463 -63 1800 -63 
Q 1156 -63 764 368 
Q 372 800 359 1872 
L 359 2638 
Q 359 3753 750 4183 
Q 1141 4613 1794 4613 
Q 2447 4613 2834 4195 
Q 3222 3778 3234 2709 
L 3234 1944 
z
M 2653 2734 
Q 2653 3503 2434 3822 
Q 2216 4141 1794 4141 
Q 1388 4141 1167 3831 
Q 947 3522 941 2778 
L 941 1850 
Q 941 1088 1164 750 
Q 1388 413 1800 413 
Q 2222 413 2436 745 
Q 2650 1078 2653 1825 
L 2653 2734 
z
" id="Roboto-Regular-30" transform="scale(0.015625)"/>
       </defs>
       <use xlink:href="#Roboto-Regular-30"/>
      </g>
     </g>
    </g>
    <g id="ytick_2">
     <g id="line2d_7">
      <g>
       <use style="stroke:#000000;stroke-width:0.8;" x="57.6" xlink:href="#mdf313aade2" y="120.614922"/>
      </g>
     </g>
     <g id="text_8">
      <!-- 1 -->
      <g transform="translate(44.979687 124.364922)scale(0.1 -0.1)">
       <use xlink:href="#Roboto-Regular-31"/>
      </g>
     </g>
    </g>
    <g id="ytick_3">
     <g id="line2d_8">
      <g>
       <use style="stroke:#000000;stroke-width:0.8;" x="57.6" xlink:href="#mdf313aade2" y="84.295345"/>
      </g>
     </g>
     <g id="text_9">
      <!-- 2 -->
      <g transform="translate(44.979687 88.045345)scale(0.1 -0.1)">
       <defs>
        <path d="M 3359 475 
L 3359 0 
L 381 0 
L 381 416 
L 1925 2134 
Q 2306 2566 2439 2819 
Q 2572 3072 2572 3328 
Q 2572 3663 2364 3900 
Q 2156 4138 1778 4138 
Q 1322 4138 1097 3878 
Q 872 3619 872 3213 
L 294 3213 
Q 294 3788 672 4200 
Q 1050 4613 1778 4613 
Q 2422 4613 2786 4278 
Q 3150 3944 3150 3397 
Q 3150 2997 2903 2592 
Q 2656 2188 2297 1797 
L 1078 475 
L 3359 475 
z
" id="Roboto-Regular-32" transform="scale(0.015625)"/>
       </defs>
       <use xlink:href="#Roboto-Regular-32"/>
      </g>
     </g>
    </g>
    <g id="ytick_4">
     <g id="line2d_9">
      <g>
       <use style="stroke:#000000;stroke-width:0.8;" x="57.6" xlink:href="#mdf313aade2" y="47.975769"/>
      </g>
     </g>
     <g id="text_10">
      <!-- 3 -->
      <g transform="translate(44.979687 51.725769)scale(0.1 -0.1)">
       <defs>
        <path d="M 1222 2084 
L 1222 2559 
L 1647 2559 
Q 2094 2563 2312 2784 
Q 2531 3006 2531 3338 
Q 2531 4138 1738 4138 
Q 1369 4138 1141 3927 
Q 913 3716 913 3359 
L 334 3359 
Q 334 3881 720 4247 
Q 1106 4613 1738 4613 
Q 2353 4613 2733 4286 
Q 3113 3959 3113 3325 
Q 3113 3072 2942 2784 
Q 2772 2497 2397 2338 
Q 2850 2191 3015 1884 
Q 3181 1578 3181 1269 
Q 3181 631 2768 284 
Q 2356 -63 1741 -63 
Q 1147 -63 722 267 
Q 297 597 297 1203 
L 875 1203 
Q 875 844 1108 628 
Q 1341 413 1741 413 
Q 2138 413 2369 622 
Q 2600 831 2600 1256 
Q 2600 1681 2337 1882 
Q 2075 2084 1634 2084 
L 1222 2084 
z
" id="Roboto-Regular-33" transform="scale(0.015625)"/>
       </defs>
       <use xlink:href="#Roboto-Regular-33"/>
      </g>
     </g>
    </g>
    <g id="text_11">
     <!-- Emissivity (ph cm^3 s^-1 A-1) -->
     <g transform="translate(38.684375 166.605906)rotate(-90)scale(0.1 -0.1)">
      <defs>
       <path d="M 528 0 
L 528 4550 
L 3388 4550 
L 3388 4056 
L 1131 4056 
L 1131 2594 
L 3100 2594 
L 3100 2103 
L 1131 2103 
L 1131 491 
L 3419 491 
L 3419 0 
L 528 0 
z
" id="Roboto-Regular-45" transform="scale(0.015625)"/>
       <path d="M 1794 2956 
Q 1225 2956 1016 2478 
L 1016 0 
L 434 0 
L 434 3381 
L 984 3381 
L 1000 3013 
Q 1366 3444 2000 3444 
Q 2325 3444 2579 3314 
Q 2834 3184 2969 2900 
Q 3138 3144 3408 3294 
Q 3678 3444 4044 3444 
Q 4588 3444 4883 3153 
Q 5178 2863 5178 2222 
L 5178 0 
L 4597 0 
L 4597 2228 
Q 4597 2653 4401 2804 
Q 4206 2956 3875 2956 
Q 3525 2956 3325 2748 
Q 3125 2541 3094 2244 
L 3094 0 
L 2516 0 
L 2516 2225 
Q 2516 2622 2319 2789 
Q 2122 2956 1794 2956 
z
" id="Roboto-Regular-6d" transform="scale(0.015625)"/>
       <path d="M 444 4278 
Q 444 4419 530 4516 
Q 616 4613 784 4613 
Q 950 4613 1039 4516 
Q 1128 4419 1128 4278 
Q 1128 4144 1039 4048 
Q 950 3953 784 3953 
Q 616 3953 530 4048 
Q 444 4144 444 4278 
z
M 1069 3381 
L 1069 0 
L 488 0 
L 488 3381 
L 1069 3381 
z
" id="Roboto-Regular-69" transform="scale(0.015625)"/>
       <path d="M 2409 897 
Q 2409 1081 2273 1229 
Q 2138 1378 1647 1478 
Q 1081 1594 747 1814 
Q 413 2034 413 2456 
Q 413 2856 755 3150 
Q 1097 3444 1666 3444 
Q 2272 3444 2612 3134 
Q 2953 2825 2953 2388 
L 2375 2388 
Q 2375 2597 2190 2783 
Q 2006 2969 1666 2969 
Q 1306 2969 1150 2812 
Q 994 2656 994 2472 
Q 994 2288 1139 2173 
Q 1284 2059 1756 1953 
Q 2378 1813 2683 1584 
Q 2988 1356 2988 941 
Q 2988 494 2630 215 
Q 2272 -63 1681 -63 
Q 1009 -63 653 281 
Q 297 625 297 1044 
L 878 1044 
Q 897 684 1155 548 
Q 1413 413 1681 413 
Q 2034 413 2221 550 
Q 2409 688 2409 897 
z
" id="Roboto-Regular-73" transform="scale(0.015625)"/>
       <path d="M 1594 -522 
Q 1294 -1316 688 -1363 
L 591 -1366 
Q 406 -1366 266 -1316 
L 263 -847 
L 419 -859 
Q 713 -859 878 -739 
Q 1044 -619 1150 -306 
L 1275 38 
L 69 3381 
L 700 3381 
L 1547 850 
L 2331 3381 
L 2950 3381 
L 1594 -522 
z
" id="Roboto-Regular-79" transform="scale(0.015625)"/>
       <path d="M 1984 -63 
Q 1375 -63 1019 328 
L 1019 -1300 
L 438 -1300 
L 438 3381 
L 969 3381 
L 997 3009 
Q 1353 3444 1975 3444 
Q 2616 3444 2956 2969 
Q 3297 2494 3297 1719 
L 3297 1653 
Q 3297 913 2955 425 
Q 2613 -63 1984 -63 
z
M 1806 2956 
Q 1281 2956 1019 2491 
L 1019 872 
Q 1284 413 1813 413 
Q 2281 413 2498 781 
Q 2716 1150 2716 1653 
L 2716 1719 
Q 2716 2222 2498 2589 
Q 2281 2956 1806 2956 
z
" id="Roboto-Regular-70" transform="scale(0.015625)"/>
       <path d="M 1794 413 
Q 2103 413 2336 597 
Q 2569 781 2591 1069 
L 3141 1069 
Q 3119 616 2725 276 
Q 2331 -63 1794 -63 
Q 1031 -63 661 440 
Q 291 944 291 1625 
L 291 1756 
Q 291 2438 661 2941 
Q 1031 3444 1794 3444 
Q 2388 3444 2753 3092 
Q 3119 2741 3141 2219 
L 2591 2219 
Q 2569 2531 2355 2750 
Q 2141 2969 1794 2969 
Q 1438 2969 1236 2787 
Q 1034 2606 951 2328 
Q 869 2050 869 1756 
L 869 1625 
Q 869 1328 950 1050 
Q 1031 772 1232 592 
Q 1434 413 1794 413 
z
" id="Roboto-Regular-63" transform="scale(0.015625)"/>
       <path d="M 200 2278 
L 1134 4550 
L 1534 4550 
L 2466 2278 
L 1928 2278 
L 1334 3788 
L 738 2278 
L 200 2278 
z
" id="Roboto-Regular-5e" transform="scale(0.015625)"/>
       <path d="M 1644 2172 
L 1644 1697 
L 119 1697 
L 119 2172 
L 1644 2172 
z
" id="Roboto-Regular-2d" transform="scale(0.015625)"/>
      </defs>
      <use xlink:href="#Roboto-Regular-45"/>
      <use x="56.835938" xlink:href="#Roboto-Regular-6d"/>
      <use x="144.53125" xlink:href="#Roboto-Regular-69"/>
      <use x="168.847656" xlink:href="#Roboto-Regular-73"/>
      <use x="220.458984" xlink:href="#Roboto-Regular-73"/>
      <use x="272.070312" xlink:href="#Roboto-Regular-69"/>
      <use x="296.386719" xlink:href="#Roboto-Regular-76"/>
      <use x="344.824219" xlink:href="#Roboto-Regular-69"/>
      <use x="369.140625" xlink:href="#Roboto-Regular-74"/>
      <use x="401.855469" xlink:href="#Roboto-Regular-79"/>
      <use x="449.169922" xlink:href="#Roboto-Regular-20"/>
      <use x="473.974609" xlink:href="#Roboto-Regular-28"/>
      <use x="508.203125" xlink:href="#Roboto-Regular-70"/>
      <use x="564.355469" xlink:href="#Roboto-Regular-68"/>
      <use x="619.433594" xlink:href="#Roboto-Regular-20"/>
      <use x="644.238281" xlink:href="#Roboto-Regular-63"/>
      <use x="696.582031" xlink:href="#Roboto-Regular-6d"/>
      <use x="784.277344" xlink:href="#Roboto-Regular-5e"/>
      <use x="826.074219" xlink:href="#Roboto-Regular-33"/>
      <use x="882.275391" xlink:href="#Roboto-Regular-20"/>
      <use x="907.080078" xlink:href="#Roboto-Regular-73"/>
      <use x="958.691406" xlink:href="#Roboto-Regular-5e"/>
      <use x="1000.488281" xlink:href="#Roboto-Regular-2d"/>
      <use x="1028.125" xlink:href="#Roboto-Regular-31"/>
      <use x="1084.326172" xlink:href="#Roboto-Regular-20"/>
      <use x="1109.130859" xlink:href="#Roboto-Regular-41"/>
      <use x="1174.365234" xlink:href="#Roboto-Regular-2d"/>
      <use x="1202.001953" xlink:href="#Roboto-Regular-31"/>
      <use x="1258.203125" xlink:href="#Roboto-Regular-29"/>
     </g>
    </g>
    <g id="text_12">
     <!-- 1e−9 -->
     <g transform="translate(57.6 38.472)scale(0.1 -0.1)">
      <defs>
       <path d="M 3134 2509 
L 3134 2034 
L 525 2034 
L 525 2509 
L 3134 2509 
z
" id="Roboto-Regular-2212" transform="scale(0.015625)"/>
      </defs>
      <use xlink:href="#Roboto-Regular-31"/>
      <use x="56.201172" xlink:href="#Roboto-Regular-65"/>
      <use x="109.228516" xlink:href="#Roboto-Regular-2212"/>
      <use x="166.40625" xlink:href="#Roboto-Regular-39"/>
     </g>
    </g>
   </g>
   <g id="line2d_10">
    <path clip-path="url(#pa6f1b62836)" d="M 73.832727 156.931804 
L 73.832727 156.931804 
L 80.325818 156.931804 
L 80.325818 156.78831 
L 86.818909 156.78831 
L 86.818909 156.93077 
L 93.312 156.93077 
L 93.312 156.58953 
L 99.805091 156.58953 
L 99.805091 156.930225 
L 106.298182 156.930225 
L 106.298182 156.930053 
L 112.791273 156.930053 
L 112.791273 156.702895 
L 119.284364 156.702895 
L 119.284364 156.932787 
L 125.777455 156.932787 
L 125.777455 156.933002 
L 132.270545 156.933002 
L 132.270545 156.933005 
L 138.763636 156.933005 
L 138.763636 156.932948 
L 145.256727 156.932948 
L 145.256727 156.930388 
L 151.749818 156.930388 
L 151.749818 156.933091 
L 158.242909 156.933091 
L 158.242909 156.929445 
L 164.736 156.929445 
L 164.736 156.932785 
L 171.229091 156.932785 
L 171.229091 156.545073 
L 177.722182 156.545073 
L 177.722182 156.933255 
L 184.215273 156.933255 
L 184.215273 156.93199 
L 190.708364 156.93199 
L 190.708364 156.932998 
L 197.201455 156.932998 
L 197.201455 156.93351 
L 203.694545 156.93351 
L 203.694545 156.933216 
L 210.187636 156.933216 
L 210.187636 156.932405 
L 216.680727 156.932405 
L 216.680727 156.931088 
L 223.173818 156.931088 
L 223.173818 156.933636 
L 229.666909 156.933636 
L 229.666909 156.933479 
L 236.16 156.933479 
L 236.16 156.925214 
L 242.653091 156.925214 
L 242.653091 156.932766 
L 249.146182 156.932766 
L 249.146182 156.933462 
L 255.639273 156.933462 
L 255.639273 156.932777 
L 262.132364 156.932777 
L 262.132364 156.933679 
L 268.625455 156.933679 
L 268.625455 156.933684 
L 275.118545 156.933684 
L 275.118545 156.933296 
L 281.611636 156.933296 
L 281.611636 156.929659 
L 288.104727 156.929659 
L 288.104727 156.933809 
L 294.597818 156.933809 
L 294.597818 156.933503 
L 301.090909 156.933503 
L 301.090909 156.93356 
L 307.584 156.93356 
L 307.584 156.933814 
L 314.077091 156.933814 
L 314.077091 156.933745 
L 320.570182 156.933745 
L 320.570182 156.933818 
L 327.063273 156.933818 
L 327.063273 156.933376 
L 333.556364 156.933376 
L 333.556364 156.933291 
L 340.049455 156.933291 
L 340.049455 156.925511 
L 346.542545 156.925511 
L 346.542545 156.933078 
L 353.035636 156.933078 
L 353.035636 156.933562 
L 359.528727 156.933562 
L 359.528727 153.977052 
L 366.021818 153.977052 
L 366.021818 156.930576 
L 372.514909 156.930576 
L 372.514909 156.932148 
L 379.008 156.932148 
L 379.008 156.933499 
L 385.501091 156.933499 
L 385.501091 156.670864 
L 391.994182 156.670864 
L 391.994182 156.923402 
L 398.487273 156.923402 
" style="fill:none;stroke:#1f77b4;stroke-linecap:square;stroke-width:1.5;"/>
   </g>
   <g id="line2d_11">
    <path clip-path="url(#pa6f1b62836)" d="M 73.832727 156.929799 
L 73.832727 156.929799 
L 80.325818 156.929799 
L 80.325818 156.681267 
L 86.818909 156.681267 
L 86.818909 156.928173 
L 93.312 156.928173 
L 93.312 156.337212 
L 99.805091 156.337212 
L 99.805091 156.926618 
L 106.298182 156.926618 
L 106.298182 156.926768 
L 112.791273 156.926768 
L 112.791273 156.508449 
L 119.284364 156.508449 
L 119.284364 156.931504 
L 125.777455 156.931504 
L 125.777455 156.931875 
L 132.270545 156.931875 
L 132.270545 156.931847 
L 138.763636 156.931847 
L 138.763636 156.931783 
L 145.256727 156.931783 
L 145.256727 156.927349 
L 151.749818 156.927349 
L 151.749818 156.932031 
L 158.242909 156.932031 
L 158.242909 156.925715 
L 164.736 156.925715 
L 164.736 156.931495 
L 171.229091 156.931495 
L 171.229091 156.24844 
L 177.722182 156.24844 
L 177.722182 156.932317 
L 184.215273 156.932317 
L 184.215273 156.930125 
L 190.708364 156.930125 
L 190.708364 156.931872 
L 197.201455 156.931872 
L 197.201455 156.932759 
L 203.694545 156.932759 
L 203.694545 156.932249 
L 210.187636 156.932249 
L 210.187636 156.930846 
L 216.680727 156.930846 
L 216.680727 156.928564 
L 223.173818 156.928564 
L 223.173818 156.932966 
L 229.666909 156.932966 
L 229.666909 156.932675 
L 236.16 156.932675 
L 236.16 156.918391 
L 242.653091 156.918391 
L 242.653091 156.931471 
L 249.146182 156.931471 
L 249.146182 156.932677 
L 255.639273 156.932677 
L 255.639273 156.931491 
L 262.132364 156.931491 
L 262.132364 156.933053 
L 268.625455 156.933053 
L 268.625455 156.933062 
L 275.118545 156.933062 
L 275.118545 156.93239 
L 281.611636 156.93239 
L 281.611636 156.9268 
L 288.104727 156.9268 
L 288.104727 156.93328 
L 294.597818 156.93328 
L 294.597818 156.932749 
L 301.090909 156.932749 
L 301.090909 156.932849 
L 307.584 156.932849 
L 307.584 156.933289 
L 314.077091 156.933289 
L 314.077091 156.93317 
L 320.570182 156.93317 
L 320.570182 156.933297 
L 327.063273 156.933297 
L 327.063273 156.932531 
L 333.556364 156.932531 
L 333.556364 156.932383 
L 340.049455 156.932383 
L 340.049455 156.919173 
L 346.542545 156.919173 
L 346.542545 156.932015 
L 353.035636 156.932015 
L 353.035636 156.932823 
L 359.528727 156.932823 
L 359.528727 151.761112 
L 366.021818 151.761112 
L 366.021818 156.927679 
L 372.514909 156.927679 
L 372.514909 156.930399 
L 379.008 156.930399 
L 379.008 156.932738 
L 385.501091 156.932738 
L 385.501091 156.477991 
L 391.994182 156.477991 
L 391.994182 156.918619 
L 398.487273 156.918619 
" style="fill:none;stroke:#ff7f0e;stroke-linecap:square;stroke-width:1.5;"/>
   </g>
   <g id="line2d_12">
    <path clip-path="url(#pa6f1b62836)" d="M 73.832727 156.925796 
L 73.832727 156.925796 
L 80.325818 156.925796 
L 80.325818 156.472051 
L 86.818909 156.472051 
L 86.818909 156.923053 
L 93.312 156.923053 
L 93.312 155.844224 
L 99.805091 155.844224 
L 99.805091 156.919786 
L 106.298182 156.919786 
L 106.298182 156.92027 
L 112.791273 156.92027 
L 112.791273 156.05527 
L 119.284364 156.05527 
L 119.284364 156.928918 
L 125.777455 156.928918 
L 125.777455 156.929598 
L 132.270545 156.929598 
L 132.270545 156.929492 
L 138.763636 156.929492 
L 138.763636 156.929432 
L 145.256727 156.929432 
L 145.256727 156.921338 
L 151.749818 156.921338 
L 151.749818 156.929887 
L 158.242909 156.929887 
L 158.242909 156.918358 
L 164.736 156.918358 
L 164.736 156.928901 
L 171.229091 156.928901 
L 171.229091 155.632981 
L 177.722182 155.632981 
L 177.722182 156.930414 
L 184.215273 156.930414 
L 184.215273 156.926413 
L 190.708364 156.926413 
L 190.708364 156.929605 
L 197.201455 156.929605 
L 197.201455 156.931225 
L 203.694545 156.931225 
L 203.694545 156.930295 
L 210.187636 156.930295 
L 210.187636 156.927734 
L 216.680727 156.927734 
L 216.680727 156.923568 
L 223.173818 156.923568 
L 223.173818 156.931596 
L 229.666909 156.931596 
L 229.666909 156.931045 
L 236.16 156.931045 
L 236.16 156.904999 
L 242.653091 156.904999 
L 242.653091 156.92888 
L 249.146182 156.92888 
L 249.146182 156.931083 
L 255.639273 156.931083 
L 255.639273 156.928919 
L 262.132364 156.928919 
L 262.132364 156.931772 
L 268.625455 156.931772 
L 268.625455 156.931789 
L 275.118545 156.931789 
L 275.118545 156.930564 
L 281.611636 156.930564 
L 281.611636 156.92146 
L 288.104727 156.92146 
L 288.104727 156.932189 
L 294.597818 156.932189 
L 294.597818 156.931222 
L 301.090909 156.931222 
L 301.090909 156.931404 
L 307.584 156.931404 
L 307.584 156.932209 
L 314.077091 156.932209 
L 314.077091 156.931993 
L 320.570182 156.931993 
L 320.570182 156.932225 
L 327.063273 156.932225 
L 327.063273 156.930827 
L 333.556364 156.930827 
L 333.556364 156.930559 
L 340.049455 156.930559 
L 340.049455 156.906895 
L 346.542545 156.906895 
L 346.542545 156.929888 
L 353.035636 156.929888 
L 353.035636 156.931335 
L 359.528727 156.931335 
L 359.528727 147.278836 
L 366.021818 147.278836 
L 366.021818 156.921964 
L 372.514909 156.921964 
L 372.514909 156.92327 
L 379.008 156.92327 
L 379.008 156.931178 
L 385.501091 156.931178 
L 385.501091 156.19664 
L 391.994182 156.19664 
L 391.994182 156.910106 
L 398.487273 156.910106 
" style="fill:none;stroke:#2ca02c;stroke-linecap:square;stroke-width:1.5;"/>
   </g>
   <g id="line2d_13">
    <path clip-path="url(#pa6f1b62836)" d="M 73.832727 156.919383 
L 73.832727 156.919383 
L 80.325818 156.919383 
L 80.325818 156.198434 
L 86.818909 156.198434 
L 86.818909 156.914874 
L 93.312 156.914874 
L 93.312 154.631135 
L 99.805091 154.631135 
L 99.805091 156.909754 
L 106.298182 156.909754 
L 106.298182 156.909841 
L 112.791273 156.909841 
L 112.791273 155.125913 
L 119.284364 155.125913 
L 119.284364 156.924822 
L 125.777455 156.924822 
L 125.777455 156.926 
L 132.270545 156.926 
L 132.270545 156.925752 
L 138.763636 156.925752 
L 138.763636 156.925713 
L 145.256727 156.925713 
L 145.256727 156.911695 
L 151.749818 156.911695 
L 151.749818 156.926502 
L 158.242909 156.926502 
L 158.242909 156.906533 
L 164.736 156.906533 
L 164.736 156.9248 
L 171.229091 156.9248 
L 171.229091 154.142504 
L 177.722182 154.142504 
L 177.722182 156.927416 
L 184.215273 156.927416 
L 184.215273 156.920487 
L 190.708364 156.920487 
L 190.708364 156.926014 
L 197.201455 156.926014 
L 197.201455 156.928821 
L 203.694545 156.928821 
L 203.694545 156.92721 
L 210.187636 156.92721 
L 210.187636 156.922774 
L 216.680727 156.922774 
L 216.680727 156.915559 
L 223.173818 156.915559 
L 223.173818 156.929498 
L 229.666909 156.929498 
L 229.666909 156.92855 
L 236.16 156.92855 
L 236.16 156.883396 
L 242.653091 156.883396 
L 242.653091 156.92476 
L 249.146182 156.92476 
L 249.146182 156.929011 
L 255.639273 156.929011 
L 255.639273 156.925008 
L 262.132364 156.925008 
L 262.132364 156.92977 
L 268.625455 156.92977 
L 268.625455 156.9298 
L 275.118545 156.9298 
L 275.118545 156.927677 
L 281.611636 156.927677 
L 281.611636 156.913039 
L 288.104727 156.913039 
L 288.104727 156.930492 
L 294.597818 156.930492 
L 294.597818 156.928817 
L 301.090909 156.928817 
L 301.090909 156.929133 
L 307.584 156.929133 
L 307.584 156.930527 
L 314.077091 156.930527 
L 314.077091 156.930153 
L 320.570182 156.930153 
L 320.570182 156.930554 
L 327.063273 156.930554 
L 327.063273 156.928134 
L 333.556364 156.928134 
L 333.556364 156.927669 
L 340.049455 156.927669 
L 340.049455 156.887269 
L 346.542545 156.887269 
L 346.542545 156.926508 
L 353.035636 156.926508 
L 353.035636 156.929101 
L 359.528727 156.929101 
L 359.528727 136.205124 
L 366.021818 136.205124 
L 366.021818 156.912702 
L 372.514909 156.912702 
L 372.514909 156.884121 
L 379.008 156.884121 
L 379.008 156.92848 
L 385.501091 156.92848 
L 385.501091 155.972318 
L 391.994182 155.972318 
L 391.994182 156.896347 
L 398.487273 156.896347 
" style="fill:none;stroke:#d62728;stroke-linecap:square;stroke-width:1.5;"/>
   </g>
   <g id="line2d_14">
    <path clip-path="url(#pa6f1b62836)" d="M 73.832727 156.905705 
L 73.832727 156.905705 
L 80.325818 156.905705 
L 80.325818 155.903206 
L 86.818909 155.903206 
L 86.818909 156.899221 
L 93.312 156.899221 
L 93.312 151.000746 
L 99.805091 151.000746 
L 99.805091 156.891397 
L 106.298182 156.891397 
L 106.298182 156.889767 
L 112.791273 156.889767 
L 112.791273 153.067042 
L 119.284364 153.067042 
L 119.284364 156.917112 
L 125.777455 156.917112 
L 125.777455 156.91926 
L 132.270545 156.91926 
L 132.270545 156.918432 
L 138.763636 156.918432 
L 138.763636 156.91873 
L 145.256727 156.91873 
L 145.256727 156.893133 
L 151.749818 156.893133 
L 151.749818 156.920164 
L 158.242909 156.920164 
L 158.242909 156.883704 
L 164.736 156.883704 
L 164.736 156.917083 
L 171.229091 156.917083 
L 171.229091 149.913983 
L 177.722182 149.913983 
L 177.722182 156.921823 
L 184.215273 156.921823 
L 184.215273 156.909169 
L 190.708364 156.909169 
L 190.708364 156.919259 
L 197.201455 156.919259 
L 197.201455 156.92438 
L 203.694545 156.92438 
L 203.694545 156.921435 
L 210.187636 156.921435 
L 210.187636 156.913335 
L 216.680727 156.913335 
L 216.680727 156.90016 
L 223.173818 156.90016 
L 223.173818 156.925712 
L 229.666909 156.925712 
L 229.666909 156.924028 
L 236.16 156.924028 
L 236.16 156.84143 
L 242.653091 156.84143 
L 242.653091 156.916948 
L 249.146182 156.916948 
L 249.146182 156.924639 
L 255.639273 156.924639 
L 255.639273 156.917771 
L 262.132364 156.917771 
L 262.132364 156.926112 
L 268.625455 156.926112 
L 268.625455 156.92614 
L 275.118545 156.92614 
L 275.118545 156.922262 
L 281.611636 156.922262 
L 281.611636 156.90079 
L 288.104727 156.90079 
L 288.104727 156.927397 
L 294.597818 156.927397 
L 294.597818 156.924337 
L 301.090909 156.924337 
L 301.090909 156.92491 
L 307.584 156.92491 
L 307.584 156.927454 
L 314.077091 156.927454 
L 314.077091 156.926769 
L 320.570182 156.926769 
L 320.570182 156.927499 
L 327.063273 156.927499 
L 327.063273 156.923078 
L 333.556364 156.923078 
L 333.556364 156.922228 
L 340.049455 156.922228 
L 340.049455 156.85299 
L 346.542545 156.85299 
L 346.542545 156.920103 
L 353.035636 156.920103 
L 353.035636 156.925118 
L 359.528727 156.925118 
L 359.528727 102.059683 
L 366.021818 102.059683 
L 366.021818 156.894621 
L 372.514909 156.894621 
L 372.514909 156.852917 
L 379.008 156.852917 
L 379.008 156.922822 
L 385.501091 156.922822 
L 385.501091 155.668513 
L 391.994182 155.668513 
L 391.994182 156.869023 
L 398.487273 156.869023 
" style="fill:none;stroke:#9467bd;stroke-linecap:square;stroke-width:1.5;"/>
   </g>
   <g id="line2d_15">
    <path clip-path="url(#pa6f1b62836)" d="M 73.832727 156.861655 
L 73.832727 156.861655 
L 80.325818 156.861655 
L 80.325818 155.551919 
L 86.818909 155.551919 
L 86.818909 156.874794 
L 93.312 156.874794 
L 93.312 146.630906 
L 99.805091 146.630906 
L 99.805091 156.863349 
L 106.298182 156.863349 
L 106.298182 156.858146 
L 112.791273 156.858146 
L 112.791273 150.458065 
L 119.284364 150.458065 
L 119.284364 156.905491 
L 125.777455 156.905491 
L 125.777455 156.909201 
L 132.270545 156.909201 
L 132.270545 156.906988 
L 138.763636 156.906988 
L 138.763636 156.908266 
L 145.256727 156.908266 
L 145.256727 156.863921 
L 151.749818 156.863921 
L 151.749818 156.910731 
L 158.242909 156.910731 
L 158.242909 156.847571 
L 164.736 156.847571 
L 164.736 156.905393 
L 171.229091 156.905393 
L 171.229091 144.221436 
L 177.722182 144.221436 
L 177.722182 156.913569 
L 184.215273 156.913569 
L 184.215273 156.891644 
L 190.708364 156.891644 
L 190.708364 156.909112 
L 197.201455 156.909112 
L 197.201455 156.917971 
L 203.694545 156.917971 
L 203.694545 156.912863 
L 210.187636 156.912863 
L 210.187636 156.898824 
L 216.680727 156.898824 
L 216.680727 156.875996 
L 223.173818 156.875996 
L 223.173818 156.920415 
L 229.666909 156.920415 
L 229.666909 156.917578 
L 236.16 156.917578 
L 236.16 156.774249 
L 242.653091 156.774249 
L 242.653091 156.905042 
L 249.146182 156.905042 
L 249.146182 156.918261 
L 255.639273 156.918261 
L 255.639273 156.901544 
L 262.132364 156.901544 
L 262.132364 156.92096 
L 268.625455 156.92096 
L 268.625455 156.920931 
L 275.118545 156.920931 
L 275.118545 156.914203 
L 281.611636 156.914203 
L 281.611636 156.871948 
L 288.104727 156.871948 
L 288.104727 156.923079 
L 294.597818 156.923079 
L 294.597818 156.91777 
L 301.090909 156.91777 
L 301.090909 156.918755 
L 307.584 156.918755 
L 307.584 156.923152 
L 314.077091 156.923152 
L 314.077091 156.921956 
L 320.570182 156.921956 
L 320.570182 156.923213 
L 327.063273 156.923213 
L 327.063273 156.915547 
L 333.556364 156.915547 
L 333.556364 156.914066 
L 340.049455 156.914066 
L 340.049455 156.805638 
L 346.542545 156.805638 
L 346.542545 156.91037 
L 353.035636 156.91037 
L 353.035636 156.919516 
L 359.528727 156.919516 
L 359.528727 46.970182 
L 366.021818 46.970182 
L 366.021818 156.866213 
L 372.514909 156.866213 
L 372.514909 156.870466 
L 379.008 156.870466 
L 379.008 156.915051 
L 385.501091 156.915051 
L 385.501091 155.290046 
L 391.994182 155.290046 
L 391.994182 156.826854 
L 398.487273 156.826854 
" style="fill:none;stroke:#8c564b;stroke-linecap:square;stroke-width:1.5;"/>
   </g>
   <g id="patch_3">
    <path d="M 57.6 162.432 
L 57.6 41.472 
" style="fill:none;stroke:#000000;stroke-linecap:square;stroke-linejoin:miter;stroke-width:0.8;"/>
   </g>
   <g id="patch_4">
    <path d="M 414.72 162.432 
L 414.72 41.472 
" style="fill:none;stroke:#000000;stroke-linecap:square;stroke-linejoin:miter;stroke-width:0.8;"/>
   </g>
   <g id="patch_5">
    <path d="M 57.6 162.432 
L 414.72 162.432 
" style="fill:none;stroke:#000000;stroke-linecap:square;stroke-linejoin:miter;stroke-width:0.8;"/>
   </g>
   <g id="patch_6">
    <path d="M 57.6 41.472 
L 414.72 41.472 
" style="fill:none;stroke:#000000;stroke-linecap:square;stroke-linejoin:miter;stroke-width:0.8;"/>
   </g>
   <g id="legend_1">
    <g id="patch_7">
     <path d="M 64.6 136.6595 
L 140.953125 136.6595 
Q 142.953125 136.6595 142.953125 134.6595 
L 142.953125 48.472 
Q 142.953125 46.472 140.953125 46.472 
L 64.6 46.472 
Q 62.6 46.472 62.6 48.472 
L 62.6 134.6595 
Q 62.6 136.6595 64.6 136.6595 
z
" style="fill:#ffffff;opacity:0.8;stroke:#cccccc;stroke-linejoin:miter;"/>
    </g>
    <g id="line2d_16">
     <path d="M 66.6 54.472 
L 86.6 54.472 
" style="fill:none;stroke:#1f77b4;stroke-linecap:square;stroke-width:1.5;"/>
    </g>
    <g id="line2d_17"/>
    <g id="text_13">
     <!-- 0.01kev/u -->
     <g transform="translate(94.6 57.972)scale(0.1 -0.1)">
      <defs>
       <path d="M 450 306 
Q 450 453 542 554 
Q 634 656 809 656 
Q 984 656 1076 554 
Q 1169 453 1169 306 
Q 1169 163 1076 62 
Q 984 -38 809 -38 
Q 634 -38 542 62 
Q 450 163 450 306 
z
" id="Roboto-Regular-2e" transform="scale(0.015625)"/>
       <path d="M 2559 0 
L 1388 1569 
L 1022 1191 
L 1022 0 
L 441 0 
L 441 4800 
L 1022 4800 
L 1022 1900 
L 1331 2269 
L 2381 3381 
L 3088 3381 
L 1769 1972 
L 3241 0 
L 2559 0 
z
" id="Roboto-Regular-6b" transform="scale(0.015625)"/>
       <path d="M 2453 4550 
L 556 -391 
L 59 -391 
L 1959 4550 
L 2453 4550 
z
" id="Roboto-Regular-2f" transform="scale(0.015625)"/>
       <path d="M 2538 0 
L 2525 334 
Q 2194 -63 1538 -63 
Q 1041 -63 734 231 
Q 428 525 428 1200 
L 428 3381 
L 1006 3381 
L 1006 1194 
Q 1006 738 1198 583 
Q 1391 428 1628 428 
Q 2281 428 2509 919 
L 2509 3381 
L 3091 3381 
L 3091 0 
L 2538 0 
z
" id="Roboto-Regular-75" transform="scale(0.015625)"/>
      </defs>
      <use xlink:href="#Roboto-Regular-30"/>
      <use x="56.201172" xlink:href="#Roboto-Regular-2e"/>
      <use x="82.568359" xlink:href="#Roboto-Regular-30"/>
      <use x="138.769531" xlink:href="#Roboto-Regular-31"/>
      <use x="194.970703" xlink:href="#Roboto-Regular-6b"/>
      <use x="245.654297" xlink:href="#Roboto-Regular-65"/>
      <use x="298.681641" xlink:href="#Roboto-Regular-76"/>
      <use x="347.119141" xlink:href="#Roboto-Regular-2f"/>
      <use x="388.378906" xlink:href="#Roboto-Regular-75"/>
     </g>
    </g>
    <g id="line2d_18">
     <path d="M 66.6 69.00325 
L 86.6 69.00325 
" style="fill:none;stroke:#ff7f0e;stroke-linecap:square;stroke-width:1.5;"/>
    </g>
    <g id="line2d_19"/>
    <g id="text_14">
     <!-- 0.03kev/u -->
     <g transform="translate(94.6 72.50325)scale(0.1 -0.1)">
      <use xlink:href="#Roboto-Regular-30"/>
      <use x="56.201172" xlink:href="#Roboto-Regular-2e"/>
      <use x="82.568359" xlink:href="#Roboto-Regular-30"/>
      <use x="138.769531" xlink:href="#Roboto-Regular-33"/>
      <use x="194.970703" xlink:href="#Roboto-Regular-6b"/>
      <use x="245.654297" xlink:href="#Roboto-Regular-65"/>
      <use x="298.681641" xlink:href="#Roboto-Regular-76"/>
      <use x="347.119141" xlink:href="#Roboto-Regular-2f"/>
      <use x="388.378906" xlink:href="#Roboto-Regular-75"/>
     </g>
    </g>
    <g id="line2d_20">
     <path d="M 66.6 83.5345 
L 86.6 83.5345 
" style="fill:none;stroke:#2ca02c;stroke-linecap:square;stroke-width:1.5;"/>
    </g>
    <g id="line2d_21"/>
    <g id="text_15">
     <!-- 0.1kev/u -->
     <g transform="translate(94.6 87.0345)scale(0.1 -0.1)">
      <use xlink:href="#Roboto-Regular-30"/>
      <use x="56.201172" xlink:href="#Roboto-Regular-2e"/>
      <use x="82.568359" xlink:href="#Roboto-Regular-31"/>
      <use x="138.769531" xlink:href="#Roboto-Regular-6b"/>
      <use x="189.453125" xlink:href="#Roboto-Regular-65"/>
      <use x="242.480469" xlink:href="#Roboto-Regular-76"/>
      <use x="290.917969" xlink:href="#Roboto-Regular-2f"/>
      <use x="332.177734" xlink:href="#Roboto-Regular-75"/>
     </g>
    </g>
    <g id="line2d_22">
     <path d="M 66.6 98.06575 
L 86.6 98.06575 
" style="fill:none;stroke:#d62728;stroke-linecap:square;stroke-width:1.5;"/>
    </g>
    <g id="line2d_23"/>
    <g id="text_16">
     <!-- 0.3kev/u -->
     <g transform="translate(94.6 101.56575)scale(0.1 -0.1)">
      <use xlink:href="#Roboto-Regular-30"/>
      <use x="56.201172" xlink:href="#Roboto-Regular-2e"/>
      <use x="82.568359" xlink:href="#Roboto-Regular-33"/>
      <use x="138.769531" xlink:href="#Roboto-Regular-6b"/>
      <use x="189.453125" xlink:href="#Roboto-Regular-65"/>
      <use x="242.480469" xlink:href="#Roboto-Regular-76"/>
      <use x="290.917969" xlink:href="#Roboto-Regular-2f"/>
      <use x="332.177734" xlink:href="#Roboto-Regular-75"/>
     </g>
    </g>
    <g id="line2d_24">
     <path d="M 66.6 112.597 
L 86.6 112.597 
" style="fill:none;stroke:#9467bd;stroke-linecap:square;stroke-width:1.5;"/>
    </g>
    <g id="line2d_25"/>
    <g id="text_17">
     <!-- 1.0kev/u -->
     <g transform="translate(94.6 116.097)scale(0.1 -0.1)">
      <use xlink:href="#Roboto-Regular-31"/>
      <use x="56.201172" xlink:href="#Roboto-Regular-2e"/>
      <use x="82.568359" xlink:href="#Roboto-Regular-30"/>
      <use x="138.769531" xlink:href="#Roboto-Regular-6b"/>
      <use x="189.453125" xlink:href="#Roboto-Regular-65"/>
      <use x="242.480469" xlink:href="#Roboto-Regular-76"/>
      <use x="290.917969" xlink:href="#Roboto-Regular-2f"/>
      <use x="332.177734" xlink:href="#Roboto-Regular-75"/>
     </g>
    </g>
    <g id="line2d_26">
     <path d="M 66.6 127.12825 
L 86.6 127.12825 
" style="fill:none;stroke:#8c564b;stroke-linecap:square;stroke-width:1.5;"/>
    </g>
    <g id="line2d_27"/>
    <g id="text_18">
     <!-- 3.0kev/u -->
     <g transform="translate(94.6 130.62825)scale(0.1 -0.1)">
      <use xlink:href="#Roboto-Regular-33"/>
      <use x="56.201172" xlink:href="#Roboto-Regular-2e"/>
      <use x="82.568359" xlink:href="#Roboto-Regular-30"/>
      <use x="138.769531" xlink:href="#Roboto-Regular-6b"/>
      <use x="189.453125" xlink:href="#Roboto-Regular-65"/>
      <use x="242.480469" xlink:href="#Roboto-Regular-76"/>
      <use x="290.917969" xlink:href="#Roboto-Regular-2f"/>
      <use x="332.177734" xlink:href="#Roboto-Regular-75"/>
     </g>
    </g>
   </g>
  </g>
  <g id="axes_2">
   <g id="patch_8">
    <path d="M 57.6 307.584 
L 414.72 307.584 
L 414.72 186.624 
L 57.6 186.624 
z
" style="fill:#ffffff;"/>
   </g>
   <g id="matplotlib.axis_3">
    <g id="xtick_6">
     <g id="line2d_28">
      <g>
       <use style="stroke:#000000;stroke-width:0.8;" x="106.298182" xlink:href="#m77ccf876de" y="307.584"/>
      </g>
     </g>
     <g id="text_19">
      <!-- 15 -->
      <g transform="translate(100.677869 322.084)scale(0.1 -0.1)">
       <use xlink:href="#Roboto-Regular-31"/>
       <use x="56.201172" xlink:href="#Roboto-Regular-35"/>
      </g>
     </g>
    </g>
    <g id="xtick_7">
     <g id="line2d_29">
      <g>
       <use style="stroke:#000000;stroke-width:0.8;" x="171.229091" xlink:href="#m77ccf876de" y="307.584"/>
      </g>
     </g>
     <g id="text_20">
      <!-- 16 -->
      <g transform="translate(165.608778 322.084)scale(0.1 -0.1)">
       <use xlink:href="#Roboto-Regular-31"/>
       <use x="56.201172" xlink:href="#Roboto-Regular-36"/>
      </g>
     </g>
    </g>
    <g id="xtick_8">
     <g id="line2d_30">
      <g>
       <use style="stroke:#000000;stroke-width:0.8;" x="236.16" xlink:href="#m77ccf876de" y="307.584"/>
      </g>
     </g>
     <g id="text_21">
      <!-- 17 -->
      <g transform="translate(230.539688 322.084)scale(0.1 -0.1)">
       <use xlink:href="#Roboto-Regular-31"/>
       <use x="56.201172" xlink:href="#Roboto-Regular-37"/>
      </g>
     </g>
    </g>
    <g id="xtick_9">
     <g id="line2d_31">
      <g>
       <use style="stroke:#000000;stroke-width:0.8;" x="301.090909" xlink:href="#m77ccf876de" y="307.584"/>
      </g>
     </g>
     <g id="text_22">
      <!-- 18 -->
      <g transform="translate(295.470597 322.084)scale(0.1 -0.1)">
       <use xlink:href="#Roboto-Regular-31"/>
       <use x="56.201172" xlink:href="#Roboto-Regular-38"/>
      </g>
     </g>
    </g>
    <g id="xtick_10">
     <g id="line2d_32">
      <g>
       <use style="stroke:#000000;stroke-width:0.8;" x="366.021818" xlink:href="#m77ccf876de" y="307.584"/>
      </g>
     </g>
     <g id="text_23">
      <!-- 19 -->
      <g transform="translate(360.401506 322.084)scale(0.1 -0.1)">
       <use xlink:href="#Roboto-Regular-31"/>
       <use x="56.201172" xlink:href="#Roboto-Regular-39"/>
      </g>
     </g>
    </g>
    <g id="text_24">
     <!-- Wavelength (A) -->
     <g transform="translate(202.150625 336.137125)scale(0.1 -0.1)">
      <use xlink:href="#Roboto-Regular-57"/>
      <use x="88.720703" xlink:href="#Roboto-Regular-61"/>
      <use x="143.115234" xlink:href="#Roboto-Regular-76"/>
      <use x="191.552734" xlink:href="#Roboto-Regular-65"/>
      <use x="244.580078" xlink:href="#Roboto-Regular-6c"/>
      <use x="268.896484" xlink:href="#Roboto-Regular-65"/>
      <use x="321.923828" xlink:href="#Roboto-Regular-6e"/>
      <use x="377.148438" xlink:href="#Roboto-Regular-67"/>
      <use x="433.300781" xlink:href="#Roboto-Regular-74"/>
      <use x="466.015625" xlink:href="#Roboto-Regular-68"/>
      <use x="521.09375" xlink:href="#Roboto-Regular-20"/>
      <use x="545.898438" xlink:href="#Roboto-Regular-28"/>
      <use x="580.126953" xlink:href="#Roboto-Regular-41"/>
      <use x="645.361328" xlink:href="#Roboto-Regular-29"/>
     </g>
    </g>
   </g>
   <g id="matplotlib.axis_4">
    <g id="ytick_5">
     <g id="line2d_33">
      <g>
       <use style="stroke:#000000;stroke-width:0.8;" x="57.6" xlink:href="#mdf313aade2" y="302.097105"/>
      </g>
     </g>
     <g id="text_25">
      <!-- 0 -->
      <g transform="translate(44.979687 305.847105)scale(0.1 -0.1)">
       <use xlink:href="#Roboto-Regular-30"/>
      </g>
     </g>
    </g>
    <g id="ytick_6">
     <g id="line2d_34">
      <g>
       <use style="stroke:#000000;stroke-width:0.8;" x="57.6" xlink:href="#mdf313aade2" y="276.668527"/>
      </g>
     </g>
     <g id="text_26">
      <!-- 2 -->
      <g transform="translate(44.979687 280.418527)scale(0.1 -0.1)">
       <use xlink:href="#Roboto-Regular-32"/>
      </g>
     </g>
    </g>
    <g id="ytick_7">
     <g id="line2d_35">
      <g>
       <use style="stroke:#000000;stroke-width:0.8;" x="57.6" xlink:href="#mdf313aade2" y="251.239948"/>
      </g>
     </g>
     <g id="text_27">
      <!-- 4 -->
      <g transform="translate(44.979687 254.989948)scale(0.1 -0.1)">
       <defs>
        <path d="M 166 1397 
L 2203 4550 
L 2819 4550 
L 2819 1531 
L 3453 1531 
L 3453 1056 
L 2819 1056 
L 2819 0 
L 2241 0 
L 2241 1056 
L 166 1056 
L 166 1397 
z
M 822 1531 
L 2241 1531 
L 2241 3766 
L 2169 3638 
L 822 1531 
z
" id="Roboto-Regular-34" transform="scale(0.015625)"/>
       </defs>
       <use xlink:href="#Roboto-Regular-34"/>
      </g>
     </g>
    </g>
    <g id="ytick_8">
     <g id="line2d_36">
      <g>
       <use style="stroke:#000000;stroke-width:0.8;" x="57.6" xlink:href="#mdf313aade2" y="225.81137"/>
      </g>
     </g>
     <g id="text_28">
      <!-- 6 -->
      <g transform="translate(44.979687 229.56137)scale(0.1 -0.1)">
       <use xlink:href="#Roboto-Regular-36"/>
      </g>
     </g>
    </g>
    <g id="ytick_9">
     <g id="line2d_37">
      <g>
       <use style="stroke:#000000;stroke-width:0.8;" x="57.6" xlink:href="#mdf313aade2" y="200.382791"/>
      </g>
     </g>
     <g id="text_29">
      <!-- 8 -->
      <g transform="translate(44.979687 204.132791)scale(0.1 -0.1)">
       <use xlink:href="#Roboto-Regular-38"/>
      </g>
     </g>
    </g>
    <g id="text_30">
     <!-- Ratio to LymanB -->
     <g transform="translate(38.845312 283.6165)rotate(-90)scale(0.1 -0.1)">
      <defs>
       <path d="M 3188 0 
L 2200 1844 
L 1131 1844 
L 1131 0 
L 528 0 
L 528 4550 
L 2034 4550 
Q 2800 4550 3214 4200 
Q 3628 3850 3628 3184 
Q 3628 2759 3398 2442 
Q 3169 2125 2763 1969 
L 3831 38 
L 3831 0 
L 3188 0 
z
M 1131 4056 
L 1131 2334 
L 2053 2334 
Q 2538 2334 2783 2582 
Q 3028 2831 3028 3184 
Q 3028 3578 2792 3817 
Q 2556 4056 2034 4056 
L 1131 4056 
z
" id="Roboto-Regular-52" transform="scale(0.015625)"/>
       <path d="M 288 1725 
Q 288 2459 700 2951 
Q 1113 3444 1822 3444 
Q 2531 3444 2943 2961 
Q 3356 2478 3366 1756 
L 3366 1653 
Q 3366 919 2952 428 
Q 2538 -63 1828 -63 
Q 1116 -63 702 428 
Q 288 919 288 1653 
L 288 1725 
z
M 866 1653 
Q 866 1150 1105 781 
Q 1344 413 1828 413 
Q 2300 413 2540 777 
Q 2781 1141 2784 1644 
L 2784 1725 
Q 2784 2222 2543 2595 
Q 2303 2969 1822 2969 
Q 1344 2969 1105 2595 
Q 866 2222 866 1725 
L 866 1653 
z
" id="Roboto-Regular-6f" transform="scale(0.015625)"/>
       <path d="M 3288 491 
L 3288 0 
L 528 0 
L 528 4550 
L 1131 4550 
L 1131 491 
L 3288 491 
z
" id="Roboto-Regular-4c" transform="scale(0.015625)"/>
       <path d="M 3625 1313 
Q 3625 675 3214 337 
Q 2803 0 2122 0 
L 528 0 
L 528 4550 
L 2019 4550 
Q 2719 4550 3111 4261 
Q 3503 3972 3503 3338 
Q 3503 3022 3323 2776 
Q 3144 2531 2831 2397 
Q 3216 2291 3420 1994 
Q 3625 1697 3625 1313 
z
M 1131 4056 
L 1131 2613 
L 2038 2613 
Q 2425 2613 2662 2806 
Q 2900 3000 2900 3344 
Q 2900 4041 2056 4056 
L 1131 4056 
z
M 3025 1306 
Q 3025 1688 2817 1908 
Q 2609 2128 2150 2128 
L 1131 2128 
L 1131 491 
L 2122 491 
Q 2550 491 2787 711 
Q 3025 931 3025 1306 
z
" id="Roboto-Regular-42" transform="scale(0.015625)"/>
      </defs>
      <use xlink:href="#Roboto-Regular-52"/>
      <use x="61.621094" xlink:href="#Roboto-Regular-61"/>
      <use x="116.015625" xlink:href="#Roboto-Regular-74"/>
      <use x="148.730469" xlink:href="#Roboto-Regular-69"/>
      <use x="173.046875" xlink:href="#Roboto-Regular-6f"/>
      <use x="230.078125" xlink:href="#Roboto-Regular-20"/>
      <use x="254.882812" xlink:href="#Roboto-Regular-74"/>
      <use x="287.597656" xlink:href="#Roboto-Regular-6f"/>
      <use x="344.628906" xlink:href="#Roboto-Regular-20"/>
      <use x="369.433594" xlink:href="#Roboto-Regular-4c"/>
      <use x="423.291016" xlink:href="#Roboto-Regular-79"/>
      <use x="470.605469" xlink:href="#Roboto-Regular-6d"/>
      <use x="558.300781" xlink:href="#Roboto-Regular-61"/>
      <use x="612.695312" xlink:href="#Roboto-Regular-6e"/>
      <use x="667.919922" xlink:href="#Roboto-Regular-42"/>
     </g>
    </g>
   </g>
   <g id="line2d_38">
    <path clip-path="url(#p27b5ee31fc)" d="M 73.832727 302.009115 
L 73.832727 302.009115 
L 80.325818 302.009115 
L 80.325818 297.324217 
L 86.818909 297.324217 
L 86.818909 301.975379 
L 93.312 301.975379 
L 93.312 290.834282 
L 99.805091 290.834282 
L 99.805091 301.957562 
L 106.298182 301.957562 
L 106.298182 301.951972 
L 112.791273 301.951972 
L 112.791273 294.535523 
L 119.284364 294.535523 
L 119.284364 302.041228 
L 125.777455 302.041228 
L 125.777455 302.048229 
L 132.270545 302.048229 
L 132.270545 302.048339 
L 138.763636 302.048339 
L 138.763636 302.046479 
L 145.256727 302.046479 
L 145.256727 301.962897 
L 151.749818 301.962897 
L 151.749818 302.05114 
L 158.242909 302.05114 
L 158.242909 301.932091 
L 164.736 301.932091 
L 164.736 302.041158 
L 171.229091 302.041158 
L 171.229091 289.382816 
L 177.722182 289.382816 
L 177.722182 302.056515 
L 184.215273 302.056515 
L 184.215273 302.015191 
L 190.708364 302.015191 
L 190.708364 302.048122 
L 197.201455 302.048122 
L 197.201455 302.064838 
L 203.694545 302.064838 
L 203.694545 302.055217 
L 210.187636 302.055217 
L 210.187636 302.028763 
L 216.680727 302.028763 
L 216.680727 301.98574 
L 223.173818 301.98574 
L 223.173818 302.068947 
L 229.666909 302.068947 
L 229.666909 302.06381 
L 236.16 302.06381 
L 236.16 301.793976 
L 242.653091 301.793976 
L 242.653091 302.040526 
L 249.146182 302.040526 
L 249.146182 302.063254 
L 255.639273 302.063254 
L 255.639273 302.040906 
L 262.132364 302.040906 
L 262.132364 302.070347 
L 268.625455 302.070347 
L 268.625455 302.070507 
L 275.118545 302.070507 
L 275.118545 302.057839 
L 281.611636 302.057839 
L 281.611636 301.93908 
L 288.104727 301.93908 
L 288.104727 302.074589 
L 294.597818 302.074589 
L 294.597818 302.06459 
L 301.090909 302.06459 
L 301.090909 302.066456 
L 307.584 302.066456 
L 307.584 302.074754 
L 314.077091 302.074754 
L 314.077091 302.072509 
L 320.570182 302.072509 
L 320.570182 302.074887 
L 327.063273 302.074887 
L 327.063273 302.060446 
L 333.556364 302.060446 
L 333.556364 302.057663 
L 340.049455 302.057663 
L 340.049455 301.803676 
L 346.542545 301.803676 
L 346.542545 302.050713 
L 353.035636 302.050713 
L 353.035636 302.066531 
L 359.528727 302.066531 
L 359.528727 205.539936 
L 366.021818 205.539936 
L 366.021818 301.96902 
L 372.514909 301.96902 
L 372.514909 302.020341 
L 379.008 302.020341 
L 379.008 302.064473 
L 385.501091 302.064473 
L 385.501091 293.489754 
L 391.994182 293.489754 
L 391.994182 301.73481 
L 398.487273 301.73481 
" style="fill:none;stroke:#1f77b4;stroke-linecap:square;stroke-width:1.5;"/>
   </g>
   <g id="line2d_39">
    <path clip-path="url(#p27b5ee31fc)" d="M 73.832727 302.010003 
L 73.832727 302.010003 
L 80.325818 302.010003 
L 80.325818 297.404132 
L 86.818909 297.404132 
L 86.818909 301.979871 
L 93.312 301.979871 
L 93.312 291.027975 
L 99.805091 291.027975 
L 99.805091 301.951052 
L 106.298182 301.951052 
L 106.298182 301.953839 
L 112.791273 301.953839 
L 112.791273 294.201397 
L 119.284364 294.201397 
L 119.284364 302.041601 
L 125.777455 302.041601 
L 125.777455 302.048489 
L 132.270545 302.048489 
L 132.270545 302.047969 
L 138.763636 302.047969 
L 138.763636 302.046777 
L 145.256727 302.046777 
L 145.256727 301.964607 
L 151.749818 301.964607 
L 151.749818 302.051368 
L 158.242909 302.051368 
L 158.242909 301.93433 
L 164.736 301.93433 
L 164.736 302.041439 
L 171.229091 302.041439 
L 171.229091 289.382816 
L 177.722182 289.382816 
L 177.722182 302.056672 
L 184.215273 302.056672 
L 184.215273 302.016046 
L 190.708364 302.016046 
L 190.708364 302.048428 
L 197.201455 302.048428 
L 197.201455 302.064866 
L 203.694545 302.064866 
L 203.694545 302.055411 
L 210.187636 302.055411 
L 210.187636 302.029407 
L 216.680727 302.029407 
L 216.680727 301.987113 
L 223.173818 301.987113 
L 223.173818 302.068699 
L 229.666909 302.068699 
L 229.666909 302.063315 
L 236.16 302.063315 
L 236.16 301.79859 
L 242.653091 301.79859 
L 242.653091 302.040992 
L 249.146182 302.040992 
L 249.146182 302.063341 
L 255.639273 302.063341 
L 255.639273 302.041373 
L 262.132364 302.041373 
L 262.132364 302.070322 
L 268.625455 302.070322 
L 268.625455 302.070484 
L 275.118545 302.070484 
L 275.118545 302.058034 
L 281.611636 302.058034 
L 281.611636 301.954433 
L 288.104727 301.954433 
L 288.104727 302.074512 
L 294.597818 302.074512 
L 294.597818 302.064686 
L 301.090909 302.064686 
L 301.090909 302.066525 
L 307.584 302.066525 
L 307.584 302.074688 
L 314.077091 302.074688 
L 314.077091 302.072485 
L 320.570182 302.072485 
L 320.570182 302.074828 
L 327.063273 302.074828 
L 327.063273 302.060634 
L 333.556364 302.060634 
L 333.556364 302.057903 
L 340.049455 302.057903 
L 340.049455 301.813092 
L 346.542545 301.813092 
L 346.542545 302.051078 
L 353.035636 302.051078 
L 353.035636 302.066056 
L 359.528727 302.066056 
L 359.528727 206.22203 
L 366.021818 206.22203 
L 366.021818 301.970727 
L 372.514909 301.970727 
L 372.514909 302.021134 
L 379.008 302.021134 
L 379.008 302.064476 
L 385.501091 302.064476 
L 385.501091 293.636934 
L 391.994182 293.636934 
L 391.994182 301.802824 
L 398.487273 301.802824 
" style="fill:none;stroke:#ff7f0e;stroke-linecap:square;stroke-width:1.5;"/>
   </g>
   <g id="line2d_40">
    <path clip-path="url(#p27b5ee31fc)" d="M 73.832727 302.012086 
L 73.832727 302.012086 
L 80.325818 302.012086 
L 80.325818 297.579536 
L 86.818909 297.579536 
L 86.818909 301.98529 
L 93.312 301.98529 
L 93.312 291.446408 
L 99.805091 291.446408 
L 99.805091 301.953376 
L 106.298182 301.953376 
L 106.298182 301.958104 
L 112.791273 301.958104 
L 112.791273 293.508078 
L 119.284364 293.508078 
L 119.284364 302.042592 
L 125.777455 302.042592 
L 125.777455 302.049234 
L 132.270545 302.049234 
L 132.270545 302.048192 
L 138.763636 302.048192 
L 138.763636 302.047613 
L 145.256727 302.047613 
L 145.256727 301.968545 
L 151.749818 301.968545 
L 151.749818 302.052056 
L 158.242909 302.052056 
L 158.242909 301.939431 
L 164.736 301.939431 
L 164.736 302.042427 
L 171.229091 302.042427 
L 171.229091 289.382816 
L 177.722182 289.382816 
L 177.722182 302.057207 
L 184.215273 302.057207 
L 184.215273 302.018121 
L 190.708364 302.018121 
L 190.708364 302.049297 
L 197.201455 302.049297 
L 197.201455 302.065126 
L 203.694545 302.065126 
L 203.694545 302.056037 
L 210.187636 302.056037 
L 210.187636 302.031021 
L 216.680727 302.031021 
L 216.680727 301.990328 
L 223.173818 301.990328 
L 223.173818 302.068746 
L 229.666909 302.068746 
L 229.666909 302.063362 
L 236.16 302.063362 
L 236.16 301.808923 
L 242.653091 301.808923 
L 242.653091 302.042218 
L 249.146182 302.042218 
L 249.146182 302.063735 
L 255.639273 302.063735 
L 255.639273 302.042602 
L 262.132364 302.042602 
L 262.132364 302.070472 
L 268.625455 302.070472 
L 268.625455 302.070638 
L 275.118545 302.070638 
L 275.118545 302.058665 
L 281.611636 302.058665 
L 281.611636 301.969729 
L 288.104727 301.969729 
L 288.104727 302.074542 
L 294.597818 302.074542 
L 294.597818 302.065094 
L 301.090909 302.065094 
L 301.090909 302.066873 
L 307.584 302.066873 
L 307.584 302.074738 
L 314.077091 302.074738 
L 314.077091 302.072627 
L 320.570182 302.072627 
L 320.570182 302.07489 
L 327.063273 302.07489 
L 327.063273 302.061238 
L 333.556364 302.061238 
L 333.556364 302.058618 
L 340.049455 302.058618 
L 340.049455 301.827451 
L 346.542545 301.827451 
L 346.542545 302.052066 
L 353.035636 302.052066 
L 353.035636 302.0662 
L 359.528727 302.0662 
L 359.528727 207.772703 
L 366.021818 207.772703 
L 366.021818 301.974658 
L 372.514909 301.974658 
L 372.514909 301.987418 
L 379.008 301.987418 
L 379.008 302.064669 
L 385.501091 302.064669 
L 385.501091 294.889094 
L 391.994182 294.889094 
L 391.994182 301.858818 
L 398.487273 301.858818 
" style="fill:none;stroke:#2ca02c;stroke-linecap:square;stroke-width:1.5;"/>
   </g>
   <g id="line2d_41">
    <path clip-path="url(#p27b5ee31fc)" d="M 73.832727 302.028271 
L 73.832727 302.028271 
L 80.325818 302.028271 
L 80.325818 298.745186 
L 86.818909 298.745186 
L 86.818909 302.007738 
L 93.312 302.007738 
L 93.312 291.607962 
L 99.805091 291.607962 
L 99.805091 301.984422 
L 106.298182 301.984422 
L 106.298182 301.984819 
L 112.791273 301.984819 
L 112.791273 293.861099 
L 119.284364 293.861099 
L 119.284364 302.05304 
L 125.777455 302.05304 
L 125.777455 302.058404 
L 132.270545 302.058404 
L 132.270545 302.057274 
L 138.763636 302.057274 
L 138.763636 302.057098 
L 145.256727 302.057098 
L 145.256727 301.993259 
L 151.749818 301.993259 
L 151.749818 302.060688 
L 158.242909 302.060688 
L 158.242909 301.969755 
L 164.736 301.969755 
L 164.736 302.052939 
L 171.229091 302.052939 
L 171.229091 289.382816 
L 177.722182 289.382816 
L 177.722182 302.064852 
L 184.215273 302.064852 
L 184.215273 302.033296 
L 190.708364 302.033296 
L 190.708364 302.05847 
L 197.201455 302.05847 
L 197.201455 302.07125 
L 203.694545 302.07125 
L 203.694545 302.063912 
L 210.187636 302.063912 
L 210.187636 302.043714 
L 216.680727 302.043714 
L 216.680727 302.010858 
L 223.173818 302.010858 
L 223.173818 302.074332 
L 229.666909 302.074332 
L 229.666909 302.070015 
L 236.16 302.070015 
L 236.16 301.864392 
L 242.653091 301.864392 
L 242.653091 302.052758 
L 249.146182 302.052758 
L 249.146182 302.072113 
L 255.639273 302.072113 
L 255.639273 302.053885 
L 262.132364 302.053885 
L 262.132364 302.075572 
L 268.625455 302.075572 
L 268.625455 302.075707 
L 275.118545 302.075707 
L 275.118545 302.06604 
L 281.611636 302.06604 
L 281.611636 301.999382 
L 288.104727 301.999382 
L 288.104727 302.07886 
L 294.597818 302.07886 
L 294.597818 302.071232 
L 301.090909 302.071232 
L 301.090909 302.072669 
L 307.584 302.072669 
L 307.584 302.07902 
L 314.077091 302.07902 
L 314.077091 302.077316 
L 320.570182 302.077316 
L 320.570182 302.079143 
L 327.063273 302.079143 
L 327.063273 302.068121 
L 333.556364 302.068121 
L 333.556364 302.066006 
L 340.049455 302.066006 
L 340.049455 301.88203 
L 346.542545 301.88203 
L 346.542545 302.060716 
L 353.035636 302.060716 
L 353.035636 302.072524 
L 359.528727 302.072524 
L 359.528727 207.698898 
L 366.021818 207.698898 
L 366.021818 301.997847 
L 372.514909 301.997847 
L 372.514909 301.867692 
L 379.008 301.867692 
L 379.008 302.069698 
L 385.501091 302.069698 
L 385.501091 297.715491 
L 391.994182 297.715491 
L 391.994182 301.923369 
L 398.487273 301.923369 
" style="fill:none;stroke:#d62728;stroke-linecap:square;stroke-width:1.5;"/>
   </g>
   <g id="line2d_42">
    <path clip-path="url(#p27b5ee31fc)" d="M 73.832727 302.04496 
L 73.832727 302.04496 
L 80.325818 302.04496 
L 80.325818 300.229415 
L 86.818909 300.229415 
L 86.818909 302.033217 
L 93.312 302.033217 
L 93.312 291.350965 
L 99.805091 291.350965 
L 99.805091 302.019048 
L 106.298182 302.019048 
L 106.298182 302.016095 
L 112.791273 302.016095 
L 112.791273 295.093066 
L 119.284364 295.093066 
L 119.284364 302.065618 
L 125.777455 302.065618 
L 125.777455 302.069507 
L 132.270545 302.069507 
L 132.270545 302.068009 
L 138.763636 302.068009 
L 138.763636 302.068548 
L 145.256727 302.068548 
L 145.256727 302.022191 
L 151.749818 302.022191 
L 151.749818 302.071145 
L 158.242909 302.071145 
L 158.242909 302.005115 
L 164.736 302.005115 
L 164.736 302.065565 
L 171.229091 302.065565 
L 171.229091 289.382816 
L 177.722182 289.382816 
L 177.722182 302.074149 
L 184.215273 302.074149 
L 184.215273 302.051233 
L 190.708364 302.051233 
L 190.708364 302.069506 
L 197.201455 302.069506 
L 197.201455 302.078779 
L 203.694545 302.078779 
L 203.694545 302.073447 
L 210.187636 302.073447 
L 210.187636 302.058777 
L 216.680727 302.058777 
L 216.680727 302.034916 
L 223.173818 302.034916 
L 223.173818 302.081193 
L 229.666909 302.081193 
L 229.666909 302.078142 
L 236.16 302.078142 
L 236.16 301.928557 
L 242.653091 301.928557 
L 242.653091 302.065321 
L 249.146182 302.065321 
L 249.146182 302.079249 
L 255.639273 302.079249 
L 255.639273 302.06681 
L 262.132364 302.06681 
L 262.132364 302.081917 
L 268.625455 302.081917 
L 268.625455 302.081968 
L 275.118545 302.081968 
L 275.118545 302.074944 
L 281.611636 302.074944 
L 281.611636 302.036059 
L 288.104727 302.036059 
L 288.104727 302.084244 
L 294.597818 302.084244 
L 294.597818 302.078701 
L 301.090909 302.078701 
L 301.090909 302.079741 
L 307.584 302.079741 
L 307.584 302.084348 
L 314.077091 302.084348 
L 314.077091 302.083106 
L 320.570182 302.083106 
L 320.570182 302.084429 
L 327.063273 302.084429 
L 327.063273 302.076423 
L 333.556364 302.076423 
L 333.556364 302.074883 
L 340.049455 302.074883 
L 340.049455 301.949491 
L 346.542545 301.949491 
L 346.542545 302.071035 
L 353.035636 302.071035 
L 353.035636 302.080116 
L 359.528727 302.080116 
L 359.528727 202.717758 
L 366.021818 202.717758 
L 366.021818 302.024886 
L 372.514909 302.024886 
L 372.514909 301.949359 
L 379.008 301.949359 
L 379.008 302.075958 
L 385.501091 302.075958 
L 385.501091 299.804381 
L 391.994182 299.804381 
L 391.994182 301.978528 
L 398.487273 301.978528 
" style="fill:none;stroke:#9467bd;stroke-linecap:square;stroke-width:1.5;"/>
   </g>
   <g id="line2d_43">
    <path clip-path="url(#p27b5ee31fc)" d="M 73.832727 302.024254 
L 73.832727 302.024254 
L 80.325818 302.024254 
L 80.325818 300.714392 
L 86.818909 300.714392 
L 86.818909 302.037395 
L 93.312 302.037395 
L 93.312 291.792519 
L 99.805091 291.792519 
L 99.805091 302.025949 
L 106.298182 302.025949 
L 106.298182 302.020745 
L 112.791273 302.020745 
L 112.791273 295.620046 
L 119.284364 295.620046 
L 119.284364 302.068094 
L 125.777455 302.068094 
L 125.777455 302.071806 
L 132.270545 302.071806 
L 132.270545 302.069592 
L 138.763636 302.069592 
L 138.763636 302.07087 
L 145.256727 302.07087 
L 145.256727 302.026521 
L 151.749818 302.026521 
L 151.749818 302.073335 
L 158.242909 302.073335 
L 158.242909 302.010169 
L 164.736 302.010169 
L 164.736 302.067997 
L 171.229091 302.067997 
L 171.229091 289.382816 
L 177.722182 289.382816 
L 177.722182 302.076173 
L 184.215273 302.076173 
L 184.215273 302.054246 
L 190.708364 302.054246 
L 190.708364 302.071716 
L 197.201455 302.071716 
L 197.201455 302.080576 
L 203.694545 302.080576 
L 203.694545 302.075467 
L 210.187636 302.075467 
L 210.187636 302.061427 
L 216.680727 302.061427 
L 216.680727 302.038597 
L 223.173818 302.038597 
L 223.173818 302.08302 
L 229.666909 302.08302 
L 229.666909 302.080183 
L 236.16 302.080183 
L 236.16 301.93684 
L 242.653091 301.93684 
L 242.653091 302.067646 
L 249.146182 302.067646 
L 249.146182 302.080866 
L 255.639273 302.080866 
L 255.639273 302.064148 
L 262.132364 302.064148 
L 262.132364 302.083566 
L 268.625455 302.083566 
L 268.625455 302.083536 
L 275.118545 302.083536 
L 275.118545 302.076808 
L 281.611636 302.076808 
L 281.611636 302.034548 
L 288.104727 302.034548 
L 288.104727 302.085685 
L 294.597818 302.085685 
L 294.597818 302.080374 
L 301.090909 302.080374 
L 301.090909 302.08136 
L 307.584 302.08136 
L 307.584 302.085757 
L 314.077091 302.085757 
L 314.077091 302.084561 
L 320.570182 302.084561 
L 320.570182 302.085818 
L 327.063273 302.085818 
L 327.063273 302.078152 
L 333.556364 302.078152 
L 333.556364 302.076671 
L 340.049455 302.076671 
L 340.049455 301.968232 
L 346.542545 301.968232 
L 346.542545 302.072974 
L 353.035636 302.072974 
L 353.035636 302.082121 
L 359.528727 302.082121 
L 359.528727 192.122182 
L 366.021818 192.122182 
L 366.021818 302.028813 
L 372.514909 302.028813 
L 372.514909 302.033066 
L 379.008 302.033066 
L 379.008 302.077656 
L 385.501091 302.077656 
L 385.501091 300.452494 
L 391.994182 300.452494 
L 391.994182 301.989451 
L 398.487273 301.989451 
" style="fill:none;stroke:#8c564b;stroke-linecap:square;stroke-width:1.5;"/>
   </g>
   <g id="patch_9">
    <path d="M 57.6 307.584 
L 57.6 186.624 
" style="fill:none;stroke:#000000;stroke-linecap:square;stroke-linejoin:miter;stroke-width:0.8;"/>
   </g>
   <g id="patch_10">
    <path d="M 414.72 307.584 
L 414.72 186.624 
" style="fill:none;stroke:#000000;stroke-linecap:square;stroke-linejoin:miter;stroke-width:0.8;"/>
   </g>
   <g id="patch_11">
    <path d="M 57.6 307.584 
L 414.72 307.584 
" style="fill:none;stroke:#000000;stroke-linecap:square;stroke-linejoin:miter;stroke-width:0.8;"/>
   </g>
   <g id="patch_12">
    <path d="M 57.6 186.624 
L 414.72 186.624 
" style="fill:none;stroke:#000000;stroke-linecap:square;stroke-linejoin:miter;stroke-width:0.8;"/>
   </g>
   <g id="legend_2">
    <g id="patch_13">
     <path d="M 64.6 281.8115 
L 140.953125 281.8115 
Q 142.953125 281.8115 142.953125 279.8115 
L 142.953125 193.624 
Q 142.953125 191.624 140.953125 191.624 
L 64.6 191.624 
Q 62.6 191.624 62.6 193.624 
L 62.6 279.8115 
Q 62.6 281.8115 64.6 281.8115 
z
" style="fill:#ffffff;opacity:0.8;stroke:#cccccc;stroke-linejoin:miter;"/>
    </g>
    <g id="line2d_44">
     <path d="M 66.6 199.624 
L 86.6 199.624 
" style="fill:none;stroke:#1f77b4;stroke-linecap:square;stroke-width:1.5;"/>
    </g>
    <g id="line2d_45"/>
    <g id="text_31">
     <!-- 0.01kev/u -->
     <g transform="translate(94.6 203.124)scale(0.1 -0.1)">
      <use xlink:href="#Roboto-Regular-30"/>
      <use x="56.201172" xlink:href="#Roboto-Regular-2e"/>
      <use x="82.568359" xlink:href="#Roboto-Regular-30"/>
      <use x="138.769531" xlink:href="#Roboto-Regular-31"/>
      <use x="194.970703" xlink:href="#Roboto-Regular-6b"/>
      <use x="245.654297" xlink:href="#Roboto-Regular-65"/>
      <use x="298.681641" xlink:href="#Roboto-Regular-76"/>
      <use x="347.119141" xlink:href="#Roboto-Regular-2f"/>
      <use x="388.378906" xlink:href="#Roboto-Regular-75"/>
     </g>
    </g>
    <g id="line2d_46">
     <path d="M 66.6 214.15525 
L 86.6 214.15525 
" style="fill:none;stroke:#ff7f0e;stroke-linecap:square;stroke-width:1.5;"/>
    </g>
    <g id="line2d_47"/>
    <g id="text_32">
     <!-- 0.03kev/u -->
     <g transform="translate(94.6 217.65525)scale(0.1 -0.1)">
      <use xlink:href="#Roboto-Regular-30"/>
      <use x="56.201172" xlink:href="#Roboto-Regular-2e"/>
      <use x="82.568359" xlink:href="#Roboto-Regular-30"/>
      <use x="138.769531" xlink:href="#Roboto-Regular-33"/>
      <use x="194.970703" xlink:href="#Roboto-Regular-6b"/>
      <use x="245.654297" xlink:href="#Roboto-Regular-65"/>
      <use x="298.681641" xlink:href="#Roboto-Regular-76"/>
      <use x="347.119141" xlink:href="#Roboto-Regular-2f"/>
      <use x="388.378906" xlink:href="#Roboto-Regular-75"/>
     </g>
    </g>
    <g id="line2d_48">
     <path d="M 66.6 228.6865 
L 86.6 228.6865 
" style="fill:none;stroke:#2ca02c;stroke-linecap:square;stroke-width:1.5;"/>
    </g>
    <g id="line2d_49"/>
    <g id="text_33">
     <!-- 0.1kev/u -->
     <g transform="translate(94.6 232.1865)scale(0.1 -0.1)">
      <use xlink:href="#Roboto-Regular-30"/>
      <use x="56.201172" xlink:href="#Roboto-Regular-2e"/>
      <use x="82.568359" xlink:href="#Roboto-Regular-31"/>
      <use x="138.769531" xlink:href="#Roboto-Regular-6b"/>
      <use x="189.453125" xlink:href="#Roboto-Regular-65"/>
      <use x="242.480469" xlink:href="#Roboto-Regular-76"/>
      <use x="290.917969" xlink:href="#Roboto-Regular-2f"/>
      <use x="332.177734" xlink:href="#Roboto-Regular-75"/>
     </g>
    </g>
    <g id="line2d_50">
     <path d="M 66.6 243.21775 
L 86.6 243.21775 
" style="fill:none;stroke:#d62728;stroke-linecap:square;stroke-width:1.5;"/>
    </g>
    <g id="line2d_51"/>
    <g id="text_34">
     <!-- 0.3kev/u -->
     <g transform="translate(94.6 246.71775)scale(0.1 -0.1)">
      <use xlink:href="#Roboto-Regular-30"/>
      <use x="56.201172" xlink:href="#Roboto-Regular-2e"/>
      <use x="82.568359" xlink:href="#Roboto-Regular-33"/>
      <use x="138.769531" xlink:href="#Roboto-Regular-6b"/>
      <use x="189.453125" xlink:href="#Roboto-Regular-65"/>
      <use x="242.480469" xlink:href="#Roboto-Regular-76"/>
      <use x="290.917969" xlink:href="#Roboto-Regular-2f"/>
      <use x="332.177734" xlink:href="#Roboto-Regular-75"/>
     </g>
    </g>
    <g id="line2d_52">
     <path d="M 66.6 257.749 
L 86.6 257.749 
" style="fill:none;stroke:#9467bd;stroke-linecap:square;stroke-width:1.5;"/>
    </g>
    <g id="line2d_53"/>
    <g id="text_35">
     <!-- 1.0kev/u -->
     <g transform="translate(94.6 261.249)scale(0.1 -0.1)">
      <use xlink:href="#Roboto-Regular-31"/>
      <use x="56.201172" xlink:href="#Roboto-Regular-2e"/>
      <use x="82.568359" xlink:href="#Roboto-Regular-30"/>
      <use x="138.769531" xlink:href="#Roboto-Regular-6b"/>
      <use x="189.453125" xlink:href="#Roboto-Regular-65"/>
      <use x="242.480469" xlink:href="#Roboto-Regular-76"/>
      <use x="290.917969" xlink:href="#Roboto-Regular-2f"/>
      <use x="332.177734" xlink:href="#Roboto-Regular-75"/>
     </g>
    </g>
    <g id="line2d_54">
     <path d="M 66.6 272.28025 
L 86.6 272.28025 
" style="fill:none;stroke:#8c564b;stroke-linecap:square;stroke-width:1.5;"/>
    </g>
    <g id="line2d_55"/>
    <g id="text_36">
     <!-- 3.0kev/u -->
     <g transform="translate(94.6 275.78025)scale(0.1 -0.1)">
      <use xlink:href="#Roboto-Regular-33"/>
      <use x="56.201172" xlink:href="#Roboto-Regular-2e"/>
      <use x="82.568359" xlink:href="#Roboto-Regular-30"/>
      <use x="138.769531" xlink:href="#Roboto-Regular-6b"/>
      <use x="189.453125" xlink:href="#Roboto-Regular-65"/>
      <use x="242.480469" xlink:href="#Roboto-Regular-76"/>
      <use x="290.917969" xlink:href="#Roboto-Regular-2f"/>
      <use x="332.177734" xlink:href="#Roboto-Regular-75"/>
     </g>
    </g>
   </g>
  </g>
 </g>
 <defs>
  <clipPath id="pa6f1b62836">
   <rect height="120.96" width="357.12" x="57.6" y="41.472"/>
  </clipPath>
  <clipPath id="p27b5ee31fc">
   <rect height="120.96" width="357.12" x="57.6" y="186.624"/>
  </clipPath>
 </defs>
</svg>
